<svg width="241" height="47" viewBox="0 0 241 47" fill="none" xmlns="http://www.w3.org/2000/svg">
<rect width="241" height="47" rx="5" fill="#0B0B0B"/>
<path d="M48.52 29C48.4133 29 48.3173 28.9627 48.232 28.888C48.1573 28.8027 48.12 28.7067 48.12 28.6V18.2C48.12 18.0827 48.1573 17.9867 48.232 17.912C48.3173 17.8373 48.4133 17.8 48.52 17.8H52.68C54.248 17.8 55.464 18.1733 56.328 18.92C57.192 19.6667 57.6453 20.7493 57.688 22.168C57.6987 22.4773 57.704 22.888 57.704 23.4C57.704 23.912 57.6987 24.3173 57.688 24.616C57.6347 26.0987 57.192 27.2027 56.36 27.928C55.5387 28.6427 54.3387 29 52.76 29H48.52ZM52.68 26.696C53.384 26.696 53.9013 26.5307 54.232 26.2C54.5627 25.8587 54.7387 25.32 54.76 24.584C54.7813 24.2747 54.792 23.8747 54.792 23.384C54.792 22.8933 54.7813 22.4987 54.76 22.2C54.7387 21.4853 54.5467 20.9573 54.184 20.616C53.832 20.2747 53.304 20.104 52.6 20.104H51V26.696H52.68ZM63.2371 29.16C61.9571 29.16 60.9491 28.8133 60.2131 28.12C59.4771 27.4267 59.0931 26.4187 59.0611 25.096V24.536C59.1038 23.2773 59.4931 22.296 60.2291 21.592C60.9758 20.8773 61.9731 20.52 63.2211 20.52C64.1278 20.52 64.8905 20.7067 65.5091 21.08C66.1385 21.4427 66.6078 21.944 66.9171 22.584C67.2371 23.224 67.3971 23.96 67.3971 24.792V25.176C67.3971 25.2827 67.3598 25.3787 67.2851 25.464C67.2105 25.5387 67.1145 25.576 66.9971 25.576H61.8771V25.688C61.8985 26.1893 62.0211 26.5947 62.2451 26.904C62.4691 27.2133 62.7945 27.368 63.2211 27.368C63.4878 27.368 63.7065 27.3147 63.8771 27.208C64.0478 27.0907 64.2025 26.952 64.3411 26.792C64.4371 26.6747 64.5118 26.6053 64.5651 26.584C64.6291 26.552 64.7251 26.536 64.8531 26.536H66.8371C66.9331 26.536 67.0131 26.568 67.0771 26.632C67.1518 26.6853 67.1891 26.76 67.1891 26.856C67.1891 27.1333 67.0291 27.4533 66.7091 27.816C66.3998 28.1787 65.9465 28.4933 65.3491 28.76C64.7518 29.0267 64.0478 29.16 63.2371 29.16ZM64.5811 23.992V23.96C64.5811 23.4373 64.4585 23.0267 64.2131 22.728C63.9785 22.4187 63.6478 22.264 63.2211 22.264C62.8051 22.264 62.4745 22.4187 62.2291 22.728C61.9945 23.0267 61.8771 23.4373 61.8771 23.96V23.992H64.5811ZM69.2971 29C69.1798 29 69.0838 28.9627 69.0091 28.888C68.9345 28.8133 68.8971 28.7173 68.8971 28.6V21.08C68.8971 20.9627 68.9345 20.8667 69.0091 20.792C69.0838 20.7173 69.1798 20.68 69.2971 20.68H71.0411C71.1585 20.68 71.2545 20.7173 71.3291 20.792C71.4038 20.8667 71.4411 20.9627 71.4411 21.08V21.624C71.6865 21.304 72.0118 21.0427 72.4171 20.84C72.8331 20.6267 73.2971 20.52 73.8091 20.52C74.9825 20.52 75.7931 20.9787 76.2411 21.896C76.4971 21.4907 76.8545 21.16 77.3131 20.904C77.7718 20.648 78.2625 20.52 78.7851 20.52C79.6598 20.52 80.3691 20.8187 80.9131 21.416C81.4678 22.0027 81.7451 22.8827 81.7451 24.056V28.6C81.7451 28.7067 81.7078 28.8027 81.6331 28.888C81.5585 28.9627 81.4625 29 81.3451 29H79.4891C79.3718 29 79.2705 28.9627 79.1851 28.888C79.1105 28.8133 79.0731 28.7173 79.0731 28.6V24.168C79.0731 23.6347 78.9611 23.2507 78.7371 23.016C78.5238 22.7813 78.2305 22.664 77.8571 22.664C77.5158 22.664 77.2331 22.7867 77.0091 23.032C76.7851 23.2667 76.6731 23.6453 76.6731 24.168V28.6C76.6731 28.7067 76.6358 28.8027 76.5611 28.888C76.4865 28.9627 76.3905 29 76.2731 29H74.4171C74.2998 29 74.2038 28.9627 74.1291 28.888C74.0545 28.8133 74.0171 28.7173 74.0171 28.6V24.168C74.0171 23.6453 73.8998 23.2667 73.6651 23.032C73.4411 22.7867 73.1531 22.664 72.8011 22.664C72.4598 22.664 72.1718 22.7867 71.9371 23.032C71.7131 23.2667 71.6011 23.64 71.6011 24.152V28.6C71.6011 28.7067 71.5638 28.8027 71.4891 28.888C71.4145 28.9627 71.3185 29 71.2011 29H69.2971ZM87.4894 29.16C86.1667 29.16 85.148 28.8453 84.4334 28.216C83.7187 27.5867 83.3294 26.7013 83.2654 25.56C83.2547 25.4213 83.2494 25.1813 83.2494 24.84C83.2494 24.4987 83.2547 24.2587 83.2654 24.12C83.3294 22.9893 83.7294 22.1093 84.4654 21.48C85.2014 20.84 86.2094 20.52 87.4894 20.52C88.78 20.52 89.7934 20.84 90.5294 21.48C91.2654 22.1093 91.6654 22.9893 91.7294 24.12C91.74 24.2587 91.7454 24.4987 91.7454 24.84C91.7454 25.1813 91.74 25.4213 91.7294 25.56C91.6654 26.7013 91.276 27.5867 90.5614 28.216C89.8467 28.8453 88.8227 29.16 87.4894 29.16ZM87.4894 27.208C87.9587 27.208 88.3054 27.0693 88.5294 26.792C88.7534 26.504 88.8814 26.0667 88.9134 25.48C88.924 25.3733 88.9294 25.16 88.9294 24.84C88.9294 24.52 88.924 24.3067 88.9134 24.2C88.8814 23.624 88.748 23.192 88.5134 22.904C88.2894 22.616 87.948 22.472 87.4894 22.472C86.604 22.472 86.1347 23.048 86.0814 24.2L86.0654 24.84L86.0814 25.48C86.1027 26.0667 86.2254 26.504 86.4494 26.792C86.684 27.0693 87.0307 27.208 87.4894 27.208Z" fill="#EE714C"/>
<path d="M100.905 29.16C99.7312 29.16 98.8192 28.8293 98.1685 28.168C97.5285 27.5067 97.1872 26.6267 97.1445 25.528L97.1285 24.84L97.1445 24.152C97.1872 23.064 97.5338 22.1893 98.1845 21.528C98.8352 20.856 99.7418 20.52 100.905 20.52C102.067 20.52 102.974 20.856 103.625 21.528C104.275 22.1893 104.622 23.064 104.665 24.152C104.675 24.2693 104.681 24.4987 104.681 24.84C104.681 25.1813 104.675 25.4107 104.665 25.528C104.622 26.6267 104.275 27.5067 103.625 28.168C102.985 28.8293 102.078 29.16 100.905 29.16ZM100.905 27.928C101.577 27.928 102.105 27.7147 102.489 27.288C102.883 26.8613 103.097 26.248 103.129 25.448C103.139 25.3413 103.145 25.1387 103.145 24.84C103.145 24.5413 103.139 24.3387 103.129 24.232C103.097 23.432 102.883 22.8187 102.489 22.392C102.105 21.9653 101.577 21.752 100.905 21.752C100.233 21.752 99.6992 21.9653 99.3045 22.392C98.9098 22.8187 98.7018 23.432 98.6805 24.232L98.6645 24.84L98.6805 25.448C98.7018 26.248 98.9098 26.8613 99.3045 27.288C99.6992 27.7147 100.233 27.928 100.905 27.928ZM107.052 29C106.945 29 106.855 28.968 106.78 28.904C106.716 28.8293 106.684 28.7387 106.684 28.632V21.048C106.684 20.9413 106.716 20.856 106.78 20.792C106.855 20.7173 106.945 20.68 107.052 20.68H107.804C107.911 20.68 107.996 20.7173 108.06 20.792C108.135 20.856 108.172 20.9413 108.172 21.048V21.752C108.481 21.3573 108.844 21.0533 109.26 20.84C109.687 20.6267 110.215 20.52 110.844 20.52C111.868 20.52 112.663 20.8507 113.228 21.512C113.804 22.1627 114.092 23.032 114.092 24.12V28.632C114.092 28.7387 114.055 28.8293 113.98 28.904C113.916 28.968 113.831 29 113.724 29H112.924C112.817 29 112.727 28.968 112.652 28.904C112.588 28.8293 112.556 28.7387 112.556 28.632V24.2C112.556 23.4427 112.369 22.856 111.996 22.44C111.633 22.024 111.105 21.816 110.412 21.816C109.74 21.816 109.207 22.0293 108.812 22.456C108.417 22.872 108.22 23.4533 108.22 24.2V28.632C108.22 28.7387 108.183 28.8293 108.108 28.904C108.044 28.968 107.959 29 107.852 29H107.052ZM124.597 29.16C123.2 29.16 122.112 28.7813 121.333 28.024C120.565 27.256 120.154 26.2107 120.101 24.888C120.09 24.568 120.085 24.0667 120.085 23.384C120.085 22.6907 120.09 22.1893 120.101 21.88C120.154 20.568 120.57 19.5333 121.349 18.776C122.128 18.0187 123.21 17.64 124.597 17.64C125.536 17.64 126.33 17.8107 126.981 18.152C127.642 18.4827 128.138 18.888 128.469 19.368C128.8 19.848 128.976 20.296 128.997 20.712V20.744C128.997 20.8293 128.965 20.8987 128.901 20.952C128.837 21.0053 128.757 21.032 128.661 21.032H127.717C127.61 21.032 127.53 21.016 127.477 20.984C127.434 20.9413 127.392 20.8613 127.349 20.744C127.189 20.264 126.88 19.8533 126.421 19.512C125.973 19.1707 125.365 19 124.597 19C123.712 19 123.018 19.24 122.517 19.72C122.016 20.2 121.744 20.9467 121.701 21.96C121.69 22.2693 121.685 22.744 121.685 23.384C121.685 24.0133 121.69 24.488 121.701 24.808C121.744 25.832 122.016 26.5893 122.517 27.08C123.018 27.56 123.712 27.8 124.597 27.8C125.493 27.8 126.208 27.5547 126.741 27.064C127.274 26.5733 127.541 25.8373 127.541 24.856V24.184H125.141C125.034 24.184 124.944 24.152 124.869 24.088C124.805 24.0133 124.773 23.9173 124.773 23.8V23.288C124.773 23.1813 124.805 23.0907 124.869 23.016C124.944 22.9413 125.034 22.904 125.141 22.904H128.757C128.864 22.904 128.949 22.9413 129.013 23.016C129.088 23.08 129.125 23.1707 129.125 23.288V24.824C129.125 25.6987 128.944 26.4613 128.581 27.112C128.218 27.7627 127.696 28.2693 127.013 28.632C126.33 28.984 125.525 29.16 124.597 29.16ZM131.44 19.128C131.333 19.128 131.242 19.096 131.168 19.032C131.104 18.9573 131.072 18.8667 131.072 18.76V17.896C131.072 17.7893 131.104 17.6987 131.168 17.624C131.242 17.5493 131.333 17.512 131.44 17.512H132.448C132.554 17.512 132.645 17.5493 132.72 17.624C132.794 17.6987 132.832 17.7893 132.832 17.896V18.76C132.832 18.8667 132.794 18.9573 132.72 19.032C132.645 19.096 132.554 19.128 132.448 19.128H131.44ZM131.568 29C131.461 29 131.37 28.968 131.296 28.904C131.232 28.8293 131.2 28.7387 131.2 28.632V21.048C131.2 20.9413 131.232 20.856 131.296 20.792C131.37 20.7173 131.461 20.68 131.568 20.68H132.336C132.442 20.68 132.528 20.7173 132.592 20.792C132.666 20.856 132.704 20.9413 132.704 21.048V28.632C132.704 28.7387 132.666 28.8293 132.592 28.904C132.528 28.968 132.442 29 132.336 29H131.568ZM138.323 29C136.637 29 135.795 28.0613 135.795 26.184V21.96H134.547C134.44 21.96 134.349 21.928 134.275 21.864C134.211 21.7893 134.179 21.6987 134.179 21.592V21.048C134.179 20.9413 134.211 20.856 134.275 20.792C134.349 20.7173 134.44 20.68 134.547 20.68H135.795V18.008C135.795 17.9013 135.827 17.816 135.891 17.752C135.965 17.6773 136.056 17.64 136.163 17.64H136.915C137.021 17.64 137.107 17.6773 137.171 17.752C137.245 17.816 137.283 17.9013 137.283 18.008V20.68H139.267C139.373 20.68 139.459 20.7173 139.523 20.792C139.597 20.856 139.635 20.9413 139.635 21.048V21.592C139.635 21.6987 139.597 21.7893 139.523 21.864C139.459 21.928 139.373 21.96 139.267 21.96H137.283V26.072C137.283 26.6053 137.373 27.0107 137.555 27.288C137.736 27.5547 138.035 27.688 138.451 27.688H139.427C139.533 27.688 139.619 27.7253 139.683 27.8C139.757 27.864 139.795 27.9493 139.795 28.056V28.632C139.795 28.7387 139.757 28.8293 139.683 28.904C139.619 28.968 139.533 29 139.427 29H138.323ZM141.901 29C141.794 29 141.703 28.968 141.629 28.904C141.565 28.8293 141.533 28.7387 141.533 28.632V18.184C141.533 18.0667 141.565 17.976 141.629 17.912C141.703 17.8373 141.794 17.8 141.901 17.8H142.717C142.834 17.8 142.925 17.8373 142.989 17.912C143.063 17.976 143.101 18.0667 143.101 18.184V22.6H148.605V18.184C148.605 18.0667 148.637 17.976 148.701 17.912C148.775 17.8373 148.866 17.8 148.973 17.8H149.789C149.906 17.8 149.997 17.8373 150.061 17.912C150.135 17.976 150.173 18.0667 150.173 18.184V28.632C150.173 28.7387 150.135 28.8293 150.061 28.904C149.986 28.968 149.895 29 149.789 29H148.973C148.866 29 148.775 28.968 148.701 28.904C148.637 28.8293 148.605 28.7387 148.605 28.632V24.04H143.101V28.632C143.101 28.7387 143.063 28.8293 142.989 28.904C142.914 28.968 142.823 29 142.717 29H141.901ZM155.851 29.16C154.837 29.16 154.053 28.8347 153.499 28.184C152.944 27.5227 152.667 26.648 152.667 25.56V21.048C152.667 20.9413 152.699 20.856 152.763 20.792C152.837 20.7173 152.928 20.68 153.035 20.68H153.835C153.941 20.68 154.027 20.7173 154.091 20.792C154.165 20.856 154.203 20.9413 154.203 21.048V25.48C154.203 27.0693 154.896 27.864 156.283 27.864C156.955 27.864 157.488 27.656 157.883 27.24C158.277 26.8133 158.475 26.2267 158.475 25.48V21.048C158.475 20.9413 158.507 20.856 158.571 20.792C158.645 20.7173 158.736 20.68 158.843 20.68H159.642C159.749 20.68 159.835 20.7173 159.899 20.792C159.963 20.856 159.995 20.9413 159.995 21.048V28.632C159.995 28.7387 159.963 28.8293 159.899 28.904C159.835 28.968 159.749 29 159.642 29H158.891C158.784 29 158.693 28.968 158.619 28.904C158.555 28.8293 158.523 28.7387 158.523 28.632V27.928C158.224 28.3333 157.861 28.6427 157.435 28.856C157.008 29.0587 156.48 29.16 155.851 29.16ZM166.484 29.16C165.332 29.16 164.457 28.76 163.86 27.96V28.632C163.86 28.7387 163.822 28.8293 163.748 28.904C163.684 28.968 163.598 29 163.492 29H162.756C162.649 29 162.558 28.968 162.484 28.904C162.42 28.8293 162.388 28.7387 162.388 28.632V18.008C162.388 17.9013 162.42 17.816 162.484 17.752C162.558 17.6773 162.649 17.64 162.756 17.64H163.539C163.646 17.64 163.732 17.6773 163.796 17.752C163.86 17.816 163.892 17.9013 163.892 18.008V21.688C164.521 20.9093 165.385 20.52 166.484 20.52C167.593 20.52 168.43 20.888 168.996 21.624C169.561 22.3493 169.865 23.2613 169.908 24.36C169.918 24.4773 169.924 24.6373 169.924 24.84C169.924 25.0427 169.918 25.2027 169.908 25.32C169.865 26.4293 169.561 27.3467 168.996 28.072C168.43 28.7973 167.593 29.16 166.484 29.16ZM166.148 27.864C166.905 27.864 167.454 27.6293 167.796 27.16C168.148 26.6907 168.34 26.072 168.372 25.304C168.382 25.1973 168.388 25.0427 168.388 24.84C168.388 22.824 167.641 21.816 166.148 21.816C165.433 21.816 164.884 22.0507 164.5 22.52C164.116 22.9893 163.913 23.5387 163.892 24.168L163.876 24.792L163.892 25.4C163.924 26.072 164.121 26.6533 164.484 27.144C164.857 27.624 165.412 27.864 166.148 27.864ZM176.385 29C176.278 29 176.188 28.968 176.113 28.904C176.049 28.8293 176.017 28.7387 176.017 28.632V18.184C176.017 18.0667 176.049 17.976 176.113 17.912C176.188 17.8373 176.278 17.8 176.385 17.8H180.449C181.654 17.8 182.604 18.0933 183.297 18.68C183.99 19.2667 184.337 20.1147 184.337 21.224C184.337 22.3333 183.99 23.1813 183.297 23.768C182.614 24.344 181.665 24.632 180.449 24.632H177.617V28.632C177.617 28.7387 177.58 28.8293 177.505 28.904C177.43 28.968 177.34 29 177.233 29H176.385ZM180.369 23.288C181.148 23.288 181.734 23.112 182.129 22.76C182.534 22.408 182.737 21.896 182.737 21.224C182.737 20.552 182.54 20.04 182.145 19.688C181.75 19.3253 181.158 19.144 180.369 19.144H177.601V23.288H180.369ZM188.238 29.16C187.716 29.16 187.23 29.0533 186.782 28.84C186.334 28.6267 185.977 28.3387 185.71 27.976C185.454 27.6027 185.326 27.192 185.326 26.744C185.326 26.04 185.614 25.464 186.19 25.016C186.777 24.5573 187.566 24.2587 188.558 24.12L190.942 23.784V23.32C190.942 22.232 190.318 21.688 189.07 21.688C188.601 21.688 188.217 21.7893 187.918 21.992C187.62 22.184 187.396 22.4133 187.246 22.68C187.214 22.776 187.172 22.8453 187.118 22.888C187.076 22.9307 187.012 22.952 186.926 22.952H186.238C186.142 22.952 186.057 22.92 185.982 22.856C185.918 22.7813 185.886 22.696 185.886 22.6C185.897 22.344 186.014 22.056 186.238 21.736C186.473 21.4053 186.83 21.1227 187.31 20.888C187.79 20.6427 188.382 20.52 189.086 20.52C190.281 20.52 191.14 20.8027 191.662 21.368C192.185 21.9227 192.446 22.616 192.446 23.448V28.632C192.446 28.7387 192.409 28.8293 192.334 28.904C192.27 28.968 192.185 29 192.078 29H191.342C191.236 29 191.145 28.968 191.07 28.904C191.006 28.8293 190.974 28.7387 190.974 28.632V27.944C190.74 28.2853 190.398 28.5733 189.95 28.808C189.502 29.0427 188.932 29.16 188.238 29.16ZM188.574 27.96C189.268 27.96 189.833 27.736 190.27 27.288C190.718 26.8293 190.942 26.1733 190.942 25.32V24.872L189.086 25.144C188.329 25.2507 187.758 25.432 187.374 25.688C186.99 25.9333 186.798 26.248 186.798 26.632C186.798 27.0587 186.974 27.3893 187.326 27.624C187.678 27.848 188.094 27.96 188.574 27.96ZM198.155 32.52C197.28 32.52 196.576 32.3707 196.043 32.072C195.509 31.784 195.131 31.4533 194.907 31.08C194.683 30.7067 194.56 30.3707 194.539 30.072C194.528 29.9653 194.56 29.8747 194.635 29.8C194.72 29.7253 194.811 29.688 194.907 29.688H195.674C195.771 29.688 195.851 29.7093 195.914 29.752C195.979 29.8053 196.032 29.896 196.075 30.024C196.203 30.3653 196.411 30.6587 196.699 30.904C196.997 31.16 197.456 31.288 198.075 31.288C198.864 31.288 199.445 31.1173 199.819 30.776C200.192 30.4453 200.379 29.8533 200.379 29V27.912C200.101 28.264 199.749 28.5467 199.323 28.76C198.896 28.9627 198.389 29.064 197.803 29.064C196.672 29.064 195.824 28.7067 195.259 27.992C194.704 27.2667 194.411 26.3493 194.379 25.24L194.363 24.792L194.379 24.36C194.411 23.2613 194.709 22.3493 195.275 21.624C195.84 20.888 196.683 20.52 197.803 20.52C198.923 20.52 199.797 20.9307 200.427 21.752V21.064C200.427 20.9573 200.459 20.8667 200.523 20.792C200.597 20.7173 200.688 20.68 200.795 20.68H201.531C201.637 20.68 201.728 20.7173 201.803 20.792C201.877 20.8667 201.915 20.9573 201.915 21.064V28.824C201.915 31.288 200.661 32.52 198.155 32.52ZM198.123 27.784C198.848 27.784 199.397 27.544 199.771 27.064C200.144 26.584 200.347 26.0133 200.379 25.352C200.389 25.256 200.395 25.0693 200.395 24.792C200.395 24.5253 200.389 24.344 200.379 24.248C200.347 23.5867 200.144 23.016 199.771 22.536C199.408 22.056 198.859 21.816 198.123 21.816C197.365 21.816 196.816 22.0507 196.475 22.52C196.133 22.9893 195.947 23.608 195.914 24.376L195.899 24.792L195.914 25.224C195.947 25.9813 196.133 26.6 196.475 27.08C196.816 27.5493 197.365 27.784 198.123 27.784ZM207.621 29.16C206.523 29.16 205.643 28.824 204.981 28.152C204.331 27.4693 203.973 26.5413 203.909 25.368L203.893 24.824L203.909 24.296C203.984 23.144 204.347 22.2267 204.997 21.544C205.659 20.8613 206.528 20.52 207.605 20.52C208.789 20.52 209.707 20.8987 210.357 21.656C211.008 22.4027 211.333 23.416 211.333 24.696V24.968C211.333 25.0747 211.296 25.1653 211.221 25.24C211.157 25.304 211.072 25.336 210.965 25.336H205.429V25.48C205.461 26.1733 205.669 26.7653 206.053 27.256C206.448 27.736 206.965 27.976 207.605 27.976C208.096 27.976 208.496 27.88 208.805 27.688C209.125 27.4853 209.36 27.2773 209.509 27.064C209.605 26.936 209.675 26.8613 209.717 26.84C209.771 26.808 209.861 26.792 209.989 26.792H210.773C210.869 26.792 210.949 26.8187 211.013 26.872C211.077 26.9253 211.109 27 211.109 27.096C211.109 27.3307 210.96 27.6133 210.661 27.944C210.373 28.2747 209.963 28.5627 209.429 28.808C208.907 29.0427 208.304 29.16 207.621 29.16ZM209.813 24.232V24.184C209.813 23.448 209.611 22.8507 209.205 22.392C208.811 21.9227 208.277 21.688 207.605 21.688C206.933 21.688 206.4 21.9227 206.005 22.392C205.621 22.8507 205.429 23.448 205.429 24.184V24.232H209.813ZM216.127 29.16C215.38 29.16 214.751 29.0427 214.239 28.808C213.737 28.5627 213.359 28.2853 213.103 27.976C212.857 27.6667 212.735 27.4107 212.735 27.208C212.735 27.1013 212.772 27.0213 212.847 26.968C212.932 26.904 213.017 26.872 213.103 26.872H213.823C213.929 26.872 214.025 26.9253 214.111 27.032C214.367 27.3307 214.644 27.5653 214.943 27.736C215.241 27.9067 215.641 27.992 216.143 27.992C216.697 27.992 217.145 27.8853 217.487 27.672C217.839 27.448 218.015 27.144 218.015 26.76C218.015 26.504 217.94 26.296 217.791 26.136C217.652 25.9653 217.407 25.8213 217.055 25.704C216.713 25.576 216.201 25.4373 215.519 25.288C214.591 25.0853 213.929 24.792 213.535 24.408C213.151 24.024 212.959 23.528 212.959 22.92C212.959 22.5147 213.076 22.1307 213.311 21.768C213.556 21.3947 213.908 21.096 214.367 20.872C214.836 20.6373 215.396 20.52 216.047 20.52C216.729 20.52 217.311 20.632 217.791 20.856C218.271 21.08 218.628 21.3467 218.863 21.656C219.108 21.9547 219.231 22.2053 219.231 22.408C219.231 22.504 219.193 22.584 219.119 22.648C219.055 22.712 218.975 22.744 218.879 22.744H218.207C218.079 22.744 217.972 22.6907 217.887 22.584C217.716 22.3813 217.567 22.2267 217.439 22.12C217.321 22.0027 217.145 21.9013 216.911 21.816C216.687 21.7307 216.399 21.688 216.047 21.688C215.535 21.688 215.14 21.8 214.863 22.024C214.585 22.2373 214.447 22.52 214.447 22.872C214.447 23.096 214.505 23.288 214.623 23.448C214.74 23.5973 214.964 23.736 215.295 23.864C215.636 23.992 216.127 24.1253 216.766 24.264C217.78 24.4773 218.495 24.7867 218.911 25.192C219.337 25.5867 219.551 26.0933 219.551 26.712C219.551 27.1707 219.417 27.5867 219.151 27.96C218.884 28.3333 218.489 28.6267 217.967 28.84C217.455 29.0533 216.841 29.16 216.127 29.16Z" fill="#EE714C" fill-opacity="0.7"/>
<path fill-rule="evenodd" clip-rule="evenodd" d="M27.9755 15C23.5719 15 20 18.5719 20 22.9755C20 26.4985 22.2997 29.4832 25.4312 30.5596C25.8226 30.6086 25.9694 30.3639 25.9694 30.1682C25.9694 29.9725 25.9694 29.4832 25.9694 28.7982C23.7676 29.2875 23.2783 27.7217 23.2783 27.7217C22.9358 26.7921 22.3976 26.5474 22.3976 26.5474C21.6636 26.0581 22.4465 26.0581 22.4465 26.0581C23.2294 26.107 23.6697 26.8899 23.6697 26.8899C24.4037 28.1132 25.5291 27.7706 25.9694 27.5749C26.0183 27.0367 26.263 26.6942 26.4587 26.4985C24.6972 26.3028 22.8379 25.6177 22.8379 22.5352C22.8379 21.6544 23.1315 20.9694 23.6697 20.3823C23.6208 20.2355 23.3272 19.4037 23.7676 18.3272C23.7676 18.3272 24.4526 18.1315 25.9694 19.159C26.6055 18.9633 27.2905 18.9144 27.9755 18.9144C28.6606 18.9144 29.3456 19.0122 29.9817 19.159C31.4985 18.1315 32.1835 18.3272 32.1835 18.3272C32.6239 19.4037 32.3303 20.2355 32.2813 20.4312C32.7706 20.9694 33.1131 21.7034 33.1131 22.5841C33.1131 25.6667 31.2538 26.3028 29.4924 26.4985C29.7859 26.7431 30.0306 27.2324 30.0306 27.9664C30.0306 29.0428 30.0306 29.8746 30.0306 30.1682C30.0306 30.3639 30.1774 30.6086 30.5688 30.5596C33.7492 29.4832 36 26.4985 36 22.9755C35.9511 18.5719 32.3792 15 27.9755 15Z" fill="#EE714C"/>
</svg>
