<svg width="35" height="35" viewBox="0 0 35 35" fill="none" xmlns="http://www.w3.org/2000/svg">
<rect width="35" height="35" rx="5" fill="#FFC5C5"/>
<path d="M27.9289 24.2858C27.8817 24.3995 27.8133 24.5011 27.7283 24.5862C27.7227 24.5917 27.7172 24.5927 27.7126 24.5973C27.6294 24.6759 27.5341 24.7415 27.4269 24.7859C27.3391 24.8219 27.2467 24.833 27.1543 24.8413C27.1266 24.8432 27.1034 24.8561 27.0757 24.8561H19.6808C19.1697 24.8561 18.7565 24.4429 18.7565 23.9318C18.7565 23.4206 19.1696 23.0074 19.6808 23.0074H24.8535L17.5363 15.6486L14.7521 19.2129C14.5913 19.419 14.3519 19.5466 14.0931 19.566C13.8241 19.5854 13.5764 19.4939 13.3878 19.3155L6.28875 12.5945C5.91806 12.2432 5.90238 11.6581 6.2527 11.2875C6.43574 11.0961 6.67976 11 6.92472 11C7.15305 11 7.38134 11.0841 7.55975 11.2523L13.9202 17.2745L16.7238 13.6853C16.8874 13.4755 17.1324 13.347 17.3977 13.3313C17.663 13.3165 17.9209 13.4145 18.1085 13.6021L26.1513 21.6911V16.5369C26.1513 16.0258 26.5645 15.6125 27.0757 15.6125C27.5868 15.6125 28.0001 16.0257 28.0001 16.5369V23.9317V23.9327C27.9991 24.0537 27.975 24.173 27.9289 24.2858Z" fill="#EB3C3C"/>
</svg>
