<svg width="15" height="15" viewBox="0 0 15 15" fill="none" xmlns="http://www.w3.org/2000/svg">
<path d="M13.1746 6.52175L13.8512 7.18127C14.1378 7.46052 14.1378 7.91209 13.8512 8.18837L7.92892 13.9636C7.6424 14.2429 7.1791 14.2429 6.89563 13.9636L0.970257 8.18837C0.683742 7.90912 0.683742 7.45755 0.970257 7.18127L1.64692 6.52175C1.93648 6.23952 2.40893 6.24546 2.6924 6.53363L6.19154 10.1135V1.57533C6.19154 1.18021 6.51768 0.862334 6.92306 0.862334H7.89844C8.30382 0.862334 8.62996 1.18021 8.62996 1.57533V10.1135L12.1291 6.53363C12.4126 6.24249 12.885 6.23655 13.1746 6.52175Z" fill="#EE714C"/>
</svg>
