<svg width="18" height="18" viewBox="0 0 18 18" fill="none" xmlns="http://www.w3.org/2000/svg">
<g clip-path="url(#clip0)">
<g clip-path="url(#clip1)">
<path d="M9.06329 17.93C6.69304 17.93 4.46456 17.007 2.78853 15.331C1.1125 13.6549 0.189453 11.4265 0.189453 9.05621C0.189453 6.68596 1.1125 4.45748 2.78853 2.78145C4.46456 1.10542 6.69304 0.182373 9.06329 0.182373C11.4335 0.182373 13.662 1.10542 15.338 2.78145C17.0141 4.45748 17.9371 6.68596 17.9371 9.05621C17.9371 11.4265 17.0141 13.6549 15.338 15.331C13.662 17.007 11.4335 17.93 9.06329 17.93ZM9.06329 1.56891C4.93482 1.56891 1.57599 4.92774 1.57599 9.05621C1.57599 13.1847 4.93482 16.5435 9.06329 16.5435C13.1918 16.5435 16.5506 13.1847 16.5506 9.05621C16.5506 4.92774 13.1918 1.56891 9.06329 1.56891ZM13.8567 7.87765L12.8763 6.89719L9.06329 10.7102L5.25031 6.89719L4.26985 7.87765L9.06329 12.6711L13.8567 7.87765Z" fill="#EB3C3C"/>
</g>
</g>
<defs>
<clipPath id="clip0">
<rect width="17.7477" height="17.7477" fill="white" transform="translate(0.189453 0.182373)"/>
</clipPath>
<clipPath id="clip1">
<rect width="17.7477" height="17.7477" fill="white" transform="translate(0.189453 0.182373)"/>
</clipPath>
</defs>
</svg>
