<svg width="13" height="21" viewBox="0 0 13 21" fill="none" xmlns="http://www.w3.org/2000/svg">
<path d="M4.24132 12.5951L4.24132 14.2196H3.61416C3.07474 14.2196 2.60163 14.525 2.37927 15.0164C2.15705 15.5079 2.24017 16.0647 2.59639 16.4698L5.48208 19.752C5.73945 20.0445 6.11032 20.2123 6.5 20.2123C6.88953 20.2123 7.26055 20.0445 7.51777 19.752L10.4038 16.4698C10.7598 16.0647 10.8431 15.5079 10.6207 15.0164C10.3985 14.525 9.92541 14.2196 9.38599 14.2196H8.75883V12.5949C11.2326 11.6752 13 9.29023 13 6.5C13 2.91591 10.0841 1.90735e-06 6.5 1.90735e-06C2.91591 1.90735e-06 0 2.91591 0 6.5C0 9.29039 1.76737 11.6754 4.24132 12.5951ZM11.7831 6.5C11.7831 9.41314 9.41313 11.7832 6.5 11.7832C3.58687 11.7832 1.2167 9.41314 1.2167 6.5C1.2167 3.58687 3.58671 1.21685 6.5 1.21685C9.41313 1.21685 11.7831 3.58687 11.7831 6.5ZM8.15033 15.4365H9.38599C9.44521 15.4365 9.48762 15.4639 9.51198 15.5179C9.5365 15.5719 9.52894 15.6218 9.48993 15.6663L6.60378 18.9484C6.5697 18.9873 6.52853 18.9954 6.49985 18.9954C6.47132 18.9954 6.43014 18.9873 6.39591 18.9484L3.51007 15.6663C3.4709 15.6218 3.4635 15.5719 3.48802 15.5179C3.51238 15.4639 3.55479 15.4365 3.61401 15.4365H4.84967C5.18569 15.4365 5.45817 15.1642 5.45817 14.8281V12.9163C5.79743 12.9712 6.14532 13 6.49985 13C6.85452 13 7.20241 12.971 7.54183 12.9161V14.8281C7.54183 15.1642 7.81431 15.4365 8.15033 15.4365Z" fill="#737373"/>
<path d="M6.49971 7.39934C6.74243 7.39934 6.94013 7.64113 6.94013 7.93829C6.94013 8.23545 6.74243 8.47725 6.49971 8.47725H5.45079C5.11477 8.47725 4.84229 8.74973 4.84229 9.08575C4.84229 9.42177 5.11477 9.6941 5.45079 9.6941H5.89121V10.073C5.89121 10.409 6.16369 10.6815 6.49971 10.6815C6.83573 10.6815 7.10806 10.409 7.10806 10.073V9.57105C7.72165 9.31336 8.15698 8.67895 8.15698 7.93829C8.15698 6.97018 7.41355 6.18248 6.49971 6.18248C6.25683 6.18248 6.05929 5.94069 6.05929 5.64337C6.05929 5.34621 6.25683 5.10442 6.49971 5.10442H7.54848C7.8845 5.10442 8.15698 4.83209 8.15698 4.49607C8.15698 4.16005 7.8845 3.88756 7.54848 3.88756H7.10806V3.50867C7.10806 3.17266 6.83573 2.90032 6.49971 2.90032C6.16369 2.90032 5.89121 3.17266 5.89121 3.50867V4.01078C5.27761 4.2683 4.84229 4.90287 4.84229 5.64337C4.84229 6.61164 5.58588 7.39934 6.49971 7.39934Z" fill="#737373"/>
</svg>
