<svg width="14" height="18" viewBox="0 0 14 18" fill="none" xmlns="http://www.w3.org/2000/svg">
<g clip-path="url(#clip0)">
<path d="M13.0228 0.86234H1.15587C0.946438 0.861856 0.754557 1.00476 0.658881 1.23235C0.561885 1.463 0.578908 1.74074 0.702826 1.95139L5.05036 9.43686C5.05181 9.43944 5.05339 9.44186 5.05485 9.44444C5.21281 9.70509 5.29833 10.0209 5.29872 10.3453V16.4481C5.2978 16.6288 5.35586 16.8025 5.45999 16.9307C5.56424 17.0588 5.70597 17.131 5.85378 17.131C5.92887 17.1309 6.0033 17.1127 6.07271 17.0773L8.51569 15.9389C8.73449 15.8571 8.87979 15.6047 8.87979 15.3008V10.3453C8.88019 10.0209 8.9657 9.70509 9.12353 9.44444C9.12498 9.44186 9.12657 9.43944 9.12802 9.43686L13.4757 1.95123C13.5996 1.74074 13.6166 1.46316 13.5196 1.23251C13.4241 1.00476 13.2321 0.861856 13.0228 0.86234Z" fill="white"/>
</g>
<defs>
<clipPath id="clip0">
<rect width="13.3108" height="16.2687" fill="white" transform="translate(0.428223 0.862336)"/>
</clipPath>
</defs>
</svg>
