<svg width="19" height="18" viewBox="0 0 19 18" fill="none" xmlns="http://www.w3.org/2000/svg">
<g clip-path="url(#clip0)">
<path d="M9.62152 0.182373C4.72819 0.182373 0.747681 4.16288 0.747681 9.05621C0.747681 13.9495 4.72819 17.93 9.62152 17.93C14.5149 17.93 18.4954 13.9488 18.4954 9.05621C18.4954 4.16357 14.5149 0.182373 9.62152 0.182373ZM9.62152 16.5553C5.48704 16.5553 2.1224 13.1914 2.1224 9.05621C2.1224 4.92104 5.48704 1.55709 9.62152 1.55709C13.7567 1.55709 17.1206 4.92104 17.1206 9.05621C17.1206 13.1914 13.756 16.5553 9.62152 16.5553Z" fill="#12A454"/>
<path d="M13.5464 10.0048L10.1096 6.56796C9.84148 6.30126 9.40846 6.30126 9.14038 6.56796L5.70356 10.0048C5.48293 10.2618 5.48293 10.642 5.70356 10.899C5.95033 11.187 6.38473 11.2207 6.67275 10.9739L9.62154 8.02518L12.5772 10.974C12.8453 11.2407 13.2783 11.2407 13.5464 10.974C13.8131 10.7059 13.8131 10.2728 13.5464 10.0048Z" fill="#12A454"/>
</g>
<defs>
<clipPath id="clip0">
<rect width="17.7477" height="17.7477" fill="white" transform="translate(0.747681 0.182373)"/>
</clipPath>
</defs>
</svg>
