<svg width="13" height="21" viewBox="0 0 13 21" fill="none" xmlns="http://www.w3.org/2000/svg">
<path d="M8.75868 7.61726V5.99269H9.38584C9.92526 5.99269 10.3984 5.68736 10.6207 5.1959C10.8429 4.70444 10.7598 4.1476 10.4036 3.74249L7.51792 0.46034C7.26055 0.167808 6.88968 3.05176e-05 6.5 3.05176e-05C6.11047 3.05176e-05 5.73945 0.167808 5.48223 0.46034L2.59624 3.74249C2.24017 4.1476 2.1569 4.70444 2.37927 5.1959C2.60148 5.68736 3.07459 5.99269 3.61401 5.99269H4.24117V7.61742C1.76737 8.53711 0 10.9221 0 13.7123C0 17.2964 2.91591 20.2123 6.5 20.2123C10.0841 20.2123 13 17.2964 13 13.7123C13 10.9219 11.2326 8.53696 8.75868 7.61726ZM1.21685 13.7123C1.21685 10.7992 3.58687 8.42917 6.5 8.42917C9.41313 8.42917 11.7833 10.7992 11.7833 13.7123C11.7833 16.6255 9.41329 18.9955 6.5 18.9955C3.58687 18.9955 1.21685 16.6255 1.21685 13.7123ZM4.84967 4.77584H3.61401C3.55479 4.77584 3.51238 4.74839 3.48802 4.69442C3.4635 4.64044 3.47106 4.59048 3.51007 4.54607L6.39622 1.26392C6.4303 1.22505 6.47147 1.21688 6.50015 1.21688C6.52868 1.21688 6.56986 1.22505 6.60409 1.26392L9.48993 4.54607C9.5291 4.59048 9.5365 4.64044 9.51198 4.69442C9.48762 4.74839 9.44521 4.77584 9.38599 4.77584H8.15033C7.81431 4.77584 7.54183 5.04817 7.54183 5.38419V7.29605C7.20257 7.24115 6.85468 7.21232 6.50015 7.21232C6.14548 7.21232 5.79759 7.24131 5.45817 7.2962V5.38419C5.45817 5.04817 5.18569 4.77584 4.84967 4.77584Z" fill="white"/>
<path d="M6.50029 12.813C6.25757 12.813 6.05987 12.5712 6.05987 12.274C6.05987 11.9769 6.25757 11.7351 6.50029 11.7351H7.54921C7.88523 11.7351 8.15771 11.4626 8.15771 11.1266C8.15771 10.7905 7.88523 10.5182 7.54921 10.5182H7.10879V10.1393C7.10879 9.80331 6.83631 9.53082 6.50029 9.53082C6.16427 9.53082 5.89194 9.80331 5.89194 10.1393V10.6413C5.27835 10.899 4.84302 11.5334 4.84302 12.274C4.84302 13.2421 5.58645 14.0298 6.50029 14.0298C6.74317 14.0298 6.94071 14.2716 6.94071 14.5689C6.94071 14.8661 6.74317 15.1079 6.50029 15.1079H5.45152C5.1155 15.1079 4.84302 15.3802 4.84302 15.7163C4.84302 16.0523 5.1155 16.3248 5.45152 16.3248H5.89194V16.7036C5.89194 17.0397 6.16427 17.312 6.50029 17.312C6.83631 17.312 7.10879 17.0397 7.10879 16.7036V16.2015C7.72239 15.944 8.15771 15.3095 8.15771 14.5689C8.15771 13.6007 7.41412 12.813 6.50029 12.813Z" fill="white"/>
</svg>
