<svg width="35" height="35" viewBox="0 0 35 35" fill="none" xmlns="http://www.w3.org/2000/svg">
<rect width="35" height="35" rx="5" fill="#C8FFDF"/>
<path d="M27.9289 11.5703C27.8817 11.4566 27.8133 11.355 27.7283 11.2699C27.7227 11.2644 27.7172 11.2634 27.7126 11.2588C27.6294 11.1802 27.5341 11.1146 27.4269 11.0702C27.3391 11.0342 27.2467 11.0231 27.1543 11.0148C27.1266 11.0129 27.1034 11 27.0757 11H19.6808C19.1697 11 18.7565 11.4132 18.7565 11.9244C18.7565 12.4355 19.1696 12.8487 19.6808 12.8487H24.8535L17.5363 20.2075L14.7521 16.6432C14.5913 16.4371 14.3519 16.3095 14.0931 16.2901C13.8241 16.2707 13.5764 16.3622 13.3878 16.5406L6.28875 23.2616C5.91806 23.6129 5.90238 24.198 6.2527 24.5687C6.43574 24.76 6.67976 24.8561 6.92472 24.8561C7.15305 24.8561 7.38134 24.772 7.55975 24.6038L13.9202 18.5816L16.7238 22.1708C16.8874 22.3806 17.1324 22.5092 17.3977 22.5248C17.663 22.5396 17.9209 22.4417 18.1085 22.254L26.1513 14.165V19.3192C26.1513 19.8304 26.5645 20.2436 27.0757 20.2436C27.5868 20.2436 28.0001 19.8304 28.0001 19.3192V11.9244V11.9235C27.9991 11.8024 27.975 11.6831 27.9289 11.5703Z" fill="#27AE60"/>
</svg>
