<svg width="227" height="32" viewBox="0 0 227 32" fill="none" xmlns="http://www.w3.org/2000/svg">
<g clip-path="url(#clip0)">
<path d="M0 18.0303C0 16.0107 0.402285 14.2223 1.20686 12.665C2.03509 11.1077 3.14728 9.9033 4.54345 9.05166C5.96328 8.17569 7.53693 7.73771 9.26439 7.73771C10.5422 7.73771 11.7964 8.0297 13.0269 8.61368C14.2811 9.17332 15.2751 9.92762 16.0085 10.8766V1.16797H20.0906V28.1769H16.0085V25.1476C15.3461 26.1208 14.4231 26.9237 13.24 27.5564C12.0804 28.1891 10.7434 28.5054 9.22889 28.5054C7.5251 28.5054 5.96328 28.0674 4.54345 27.1915C3.14728 26.2912 2.03509 25.0502 1.20686 23.4686C0.402285 21.8627 0 20.0498 0 18.0303ZM16.0085 18.1033C16.0085 16.7163 15.7247 15.512 15.1567 14.49C14.6124 13.468 13.8907 12.6894 12.9914 12.154C12.0922 11.6187 11.122 11.3511 10.0808 11.3511C9.03958 11.3511 8.06937 11.6187 7.17014 12.154C6.27092 12.665 5.53734 13.4315 4.9694 14.4534C4.42513 15.4511 4.15299 16.6433 4.15299 18.0303C4.15299 19.4172 4.42513 20.6338 4.9694 21.6802C5.53734 22.7264 6.27092 23.5294 7.17014 24.089C8.09303 24.6244 9.06324 24.8921 10.0808 24.8921C11.122 24.8921 12.0922 24.6244 12.9914 24.089C13.8907 23.5538 14.6124 22.7751 15.1567 21.7532C15.7247 20.7069 16.0085 19.4903 16.0085 18.1033Z" fill="white"/>
<path d="M43.3308 17.6289C43.3308 18.3831 43.2835 19.0644 43.1889 19.6727H28.2451C28.3635 21.2786 28.9432 22.5683 29.9844 23.5416C31.0257 24.5149 32.3035 25.0015 33.818 25.0015C35.995 25.0015 37.5332 24.0647 38.4325 22.1912H42.7984C42.2068 24.0403 41.13 25.5611 39.5683 26.7535C38.0301 27.9214 36.1134 28.5054 33.818 28.5054C31.9485 28.5054 30.2684 28.0795 28.7776 27.2279C27.3103 26.3519 26.1509 25.1354 25.299 23.578C24.4708 21.9965 24.0566 20.1715 24.0566 18.1033C24.0566 16.0351 24.4589 14.2223 25.2635 12.665C26.0917 11.0834 27.2395 9.86679 28.7066 9.01515C30.1974 8.16353 31.9012 7.7377 33.818 7.7377C35.6637 7.7377 37.3083 8.15136 38.7518 8.97865C40.1953 9.80595 41.3194 10.9739 42.1239 12.4825C42.9285 13.9669 43.3308 15.6822 43.3308 17.6289ZM39.1068 16.3148C39.0832 14.7819 38.5507 13.5531 37.5095 12.6285C36.4684 11.7039 35.1786 11.2416 33.6405 11.2416C32.2443 11.2416 31.0493 11.7039 30.0554 12.6285C29.0616 13.5288 28.47 14.7576 28.2806 16.3148H39.1068Z" fill="white"/>
<path d="M54.8736 24.4541L60.4109 8.06619H64.7059L57.2518 28.1769H52.4244L45.0057 8.06619H49.3363L54.8736 24.4541Z" fill="white"/>
<path d="M69.3975 28.4324C68.6639 28.4324 68.0486 28.1769 67.5516 27.6659C67.0548 27.1549 66.8063 26.5223 66.8063 25.768C66.8063 25.0137 67.0548 24.3811 67.5516 23.8701C68.0486 23.3591 68.6639 23.1036 69.3975 23.1036C70.1074 23.1036 70.7109 23.3591 71.2077 23.8701C71.7047 24.3811 71.9531 25.0137 71.9531 25.768C71.9531 26.5223 71.7047 27.1549 71.2077 27.6659C70.7109 28.1769 70.1074 28.4324 69.3975 28.4324Z" fill="#4F1685"/>
<path d="M84.526 11.4606H80.9055V28.1769H76.8235V11.4606H74.5162V8.06619H76.8235V6.64276C76.8235 4.33117 77.4151 2.65224 78.5983 1.60595C79.8052 0.535326 81.6864 1.52588e-05 84.2421 1.52588e-05V3.46738C83.0115 3.46738 82.1479 3.7107 81.6509 4.19735C81.1539 4.65967 80.9055 5.4748 80.9055 6.64276V8.06619H84.526V11.4606Z" fill="white"/>
<path d="M90.1711 5.4018C89.4374 5.4018 88.8222 5.14632 88.3253 4.63533C87.8283 4.12435 87.5798 3.49171 87.5798 2.7374C87.5798 1.98311 87.8283 1.35046 88.3253 0.839484C88.8222 0.328503 89.4374 0.0730133 90.1711 0.0730133C90.8809 0.0730133 91.4844 0.328503 91.9814 0.839484C92.4783 1.35046 92.7268 1.98311 92.7268 2.7374C92.7268 3.49171 92.4783 4.12435 91.9814 4.63533C91.4844 5.14632 90.8809 5.4018 90.1711 5.4018ZM92.1588 8.06619V28.1769H88.1123V8.06619H92.1588Z" fill="white"/>
<path d="M107.339 7.7377C108.877 7.7377 110.25 8.06619 111.457 8.72317C112.687 9.38014 113.646 10.3534 114.332 11.6431C115.018 12.9327 115.361 14.49 115.361 16.3148V28.1769H111.35V16.9354C111.35 15.1348 110.912 13.7599 110.037 12.811C109.161 11.8377 107.966 11.3511 106.452 11.3511C104.937 11.3511 103.731 11.8377 102.831 12.811C101.956 13.7599 101.518 15.1348 101.518 16.9354V28.1769H97.4716V8.06619H101.518V10.3656C102.181 9.5383 103.021 8.89349 104.038 8.43117C105.079 7.96886 106.18 7.7377 107.339 7.7377Z" fill="white"/>
<path d="M119.174 18.0303C119.174 16.0107 119.577 14.2223 120.381 12.665C121.209 11.1077 122.322 9.90329 123.718 9.05165C125.137 8.17568 126.699 7.7377 128.403 7.7377C129.941 7.7377 131.278 8.05403 132.414 8.68667C133.574 9.29498 134.497 10.0614 135.183 10.9861V8.06619H139.265V28.1769H135.183V25.184C134.497 26.133 133.562 26.9237 132.379 27.5564C131.195 28.1891 129.847 28.5054 128.332 28.5054C126.652 28.5054 125.114 28.0674 123.718 27.1915C122.322 26.2912 121.209 25.0502 120.381 23.4686C119.577 21.8627 119.174 20.0498 119.174 18.0303ZM135.183 18.1033C135.183 16.7163 134.899 15.5119 134.33 14.49C133.787 13.468 133.065 12.6893 132.166 12.154C131.266 11.6187 130.296 11.3511 129.255 11.3511C128.214 11.3511 127.244 11.6187 126.344 12.154C125.445 12.665 124.712 13.4315 124.144 14.4534C123.599 15.4511 123.327 16.6433 123.327 18.0303C123.327 19.4172 123.599 20.6338 124.144 21.6802C124.712 22.7264 125.445 23.5293 126.344 24.089C127.267 24.6244 128.237 24.8921 129.255 24.8921C130.296 24.8921 131.266 24.6244 132.166 24.089C133.065 23.5538 133.787 22.7751 134.33 21.7532C134.899 20.7069 135.183 19.4903 135.183 18.1033Z" fill="white"/>
<path d="M154.448 7.7377C155.985 7.7377 157.358 8.06619 158.565 8.72317C159.795 9.38014 160.754 10.3534 161.441 11.6431C162.127 12.9327 162.47 14.49 162.47 16.3148V28.1769H158.458V16.9354C158.458 15.1348 158.02 13.7599 157.145 12.811C156.27 11.8377 155.075 11.3511 153.56 11.3511C152.046 11.3511 150.838 11.8377 149.94 12.811C149.063 13.7599 148.627 15.1348 148.627 16.9354V28.1769H144.58V8.06619H148.627V10.3656C149.289 9.5383 150.128 8.89349 151.146 8.43117C152.187 7.96886 153.288 7.7377 154.448 7.7377Z" fill="white"/>
<path d="M166.283 18.1033C166.283 16.0351 166.685 14.2223 167.489 12.665C168.318 11.0834 169.452 9.86679 170.896 9.01515C172.34 8.16353 173.996 7.7377 175.866 7.7377C178.232 7.7377 180.184 8.32168 181.723 9.48963C183.284 10.6333 184.337 12.2757 184.882 14.417H180.515C180.16 13.4193 179.593 12.6407 178.812 12.081C178.032 11.5214 177.049 11.2416 175.866 11.2416C174.21 11.2416 172.885 11.8499 171.89 13.0665C170.92 14.2588 170.436 15.9377 170.436 18.1033C170.436 20.2689 170.92 21.96 171.89 23.1766C172.885 24.3932 174.21 25.0015 175.866 25.0015C178.209 25.0015 179.759 23.9431 180.515 21.8262H184.882C184.314 23.8701 183.249 25.5003 181.687 26.7169C180.125 27.9093 178.185 28.5054 175.866 28.5054C173.996 28.5054 172.34 28.0795 170.896 27.2279C169.452 26.3519 168.318 25.1354 167.489 23.578C166.685 21.9965 166.283 20.1715 166.283 18.1033Z" fill="white"/>
<path d="M206.84 17.6289C206.84 18.3831 206.793 19.0644 206.698 19.6727H191.754C191.873 21.2786 192.452 22.5683 193.493 23.5416C194.535 24.5149 195.812 25.0015 197.327 25.0015C199.505 25.0015 201.042 24.0647 201.942 22.1912H206.308C205.716 24.0403 204.64 25.5611 203.077 26.7535C201.54 27.9214 199.622 28.5054 197.327 28.5054C195.457 28.5054 193.777 28.0795 192.287 27.2279C190.82 26.3519 189.66 25.1354 188.809 23.578C187.98 21.9965 187.565 20.1715 187.565 18.1033C187.565 16.0351 187.968 14.2223 188.773 12.665C189.6 11.0834 190.749 9.86679 192.216 9.01515C193.707 8.16353 195.411 7.7377 197.327 7.7377C199.173 7.7377 200.818 8.15136 202.262 8.97865C203.705 9.80595 204.828 10.9739 205.633 12.4825C206.438 13.9669 206.84 15.6822 206.84 17.6289ZM202.617 16.3148C202.593 14.7819 202.06 13.5531 201.018 12.6285C199.977 11.7039 198.688 11.2416 197.15 11.2416C195.754 11.2416 194.558 11.7039 193.565 12.6285C192.571 13.5288 191.98 14.7576 191.79 16.3148H202.617Z" fill="white"/>
<path d="M69.3981 28.4324C68.6646 28.4324 68.0492 28.1769 67.5524 27.6659C67.0554 27.1549 66.8069 26.5224 66.8069 25.7681C66.8069 25.0137 67.0554 24.3811 67.5524 23.8701C68.0492 23.3591 68.6646 23.1036 69.3981 23.1036C70.1081 23.1036 70.7115 23.3591 71.2085 23.8701C71.7053 24.3811 71.9538 25.0137 71.9538 25.7681C71.9538 26.5224 71.7053 27.1549 71.2085 27.6659C70.7115 28.1769 70.1081 28.4324 69.3981 28.4324Z" fill="#AE2400"/>
<path d="M226.986 22.8637C226.986 23.894 226.688 24.8625 226.091 25.7691C225.517 26.6758 224.658 27.4383 223.511 28.0564C222.388 28.6746 221.051 29.0455 219.499 29.1692V31.6728H217.17V29.1692C214.925 28.9836 213.111 28.3758 211.725 27.3455C210.339 26.3152 209.646 24.9553 209.646 23.2655H214.017C214.09 24.0691 214.388 24.7388 214.913 25.2746C215.439 25.7897 216.191 26.1195 217.17 26.2638V19.4638C215.571 19.1134 214.268 18.7631 213.265 18.4128C212.262 18.0419 211.403 17.465 210.686 16.6819C209.994 15.8989 209.646 14.8274 209.646 13.4673C209.646 11.7571 210.339 10.3456 211.725 9.23283C213.111 8.09951 214.925 7.44012 217.17 7.25467V4.75104H219.499V7.25467C221.6 7.41951 223.284 7.99648 224.55 8.98556C225.84 9.95405 226.569 11.2934 226.735 13.0037H222.364C222.293 12.365 222.007 11.7983 221.505 11.3037C221.004 10.7886 220.335 10.4383 219.499 10.2528V16.9292C221.099 17.2588 222.4 17.6092 223.404 17.98C224.407 18.3304 225.255 18.8971 225.947 19.6801C226.64 20.4425 226.986 21.5038 226.986 22.8637ZM213.802 13.2819C213.802 14.1268 214.09 14.7861 214.663 15.2601C215.259 15.7341 216.096 16.1152 217.17 16.4037V10.1601C216.143 10.2631 215.32 10.5825 214.698 11.1183C214.102 11.654 213.802 12.3753 213.802 13.2819ZM219.499 26.2638C220.55 26.1195 221.373 25.7588 221.971 25.1819C222.568 24.5843 222.866 23.8734 222.866 23.0491C222.866 22.225 222.568 21.5861 221.971 21.1328C221.397 20.6589 220.574 20.2776 219.499 19.9891V26.2638Z" fill="#AE2400"/>
</g>
<defs>
<clipPath id="clip0">
<rect width="226.987" height="31.6726" fill="white"/>
</clipPath>
</defs>
</svg>
