<svg width="128" height="100" viewBox="0 0 128 100" fill="none" xmlns="http://www.w3.org/2000/svg">
<path d="M107.519 44.2897H15.6384V99.7666H107.519V44.2897Z" fill="#FFF0E6"/>
<path fill-rule="evenodd" clip-rule="evenodd" d="M104.503 81.6628H90.3169V95.2722H104.503V81.6628ZM86.8552 70.9515H72.6694V95.2722H86.8552V70.9515ZM69.2077 66.335H55.0216V95.2722H69.2077V66.335ZM51.5599 60.8428H37.3738V95.2722H51.5599V60.8428ZM33.9121 85.5502H19.7261V95.2722H33.9121V85.5502Z" fill="#FFA396"/>
<path fill-rule="evenodd" clip-rule="evenodd" d="M101.062 63.5711L101.759 61.7807L106.459 67.8472L98.976 68.9274L99.712 67.0375L58.951 50.0257L55.1769 56.7848L48.2901 53.2411L34.3239 89.3546L24.8925 84.6177C22.8887 88 21.2248 90.9392 19.9113 92.8546L16.9338 90.7078C18.4013 88.5684 20.3097 85.1208 22.6545 81.2159L23.5208 79.7732L32.3909 84.2283L46.3712 48.0785L53.7299 51.865L57.3741 45.3384L101.062 63.5711Z" fill="#CD0000"/>
<path fill-rule="evenodd" clip-rule="evenodd" d="M98.4245 61.663L97.6901 25.0452L68.2989 18.6402L36.4985 11.5156C30.8243 10.2443 24.9124 10.5239 19.3836 12.3252L13.0865 14.3766L4.40051 25.5038C4.23338 25.7179 3.92387 25.756 3.70972 25.5889C3.49564 25.4217 3.45751 25.1122 3.62464 24.8981L12.4957 13.5339L19.0787 11.3893C24.7755 9.53339 30.867 9.24526 36.7136 10.5552C48.6532 13.2301 68.5127 17.6795 68.5094 17.6789L98.6586 24.2489L99.4125 61.848L100.064 61.0025C100.154 60.8848 100.324 60.8627 100.442 60.9535C100.559 61.0443 100.581 61.2131 100.49 61.3308L99.43 62.7068L99.5167 67.0362C99.5221 67.3079 99.3062 67.5325 99.0345 67.5386C98.7635 67.5439 98.5382 67.3274 98.5328 67.0563L98.4427 62.5535L97.4789 61.3335C97.3867 61.2171 97.4069 61.0476 97.5233 60.9555C97.6396 60.8633 97.8091 60.8835 97.9006 60.9999L98.4245 61.663Z" fill="black"/>
<path fill-rule="evenodd" clip-rule="evenodd" d="M29.7099 22.4509C29.7099 22.4509 21.11 25.0874 14.3823 27.1498C12.5665 27.7064 11.1314 29.1057 10.5289 30.9068C9.92646 32.7079 10.2309 34.689 11.3463 36.2262C13.826 39.6434 16.3313 43.0958 16.3313 43.0958C16.3313 43.0958 15.2094 43.4272 15.3272 44.1614L28.4774 44.3574L23.2906 36.7431C23.2906 36.7431 34.4619 35.9267 37.3267 34.435L54.3861 43.2166C54.3861 43.2166 52.4104 43.5369 52.3062 44.4347L62.0463 44.3263C62.0463 44.3263 64.6561 42.2165 65.7327 41.3457C65.8419 41.2574 65.9037 41.1233 65.9005 40.9829C65.8966 40.8426 65.8279 40.7119 65.7142 40.6293C62.4163 38.2255 42.954 24.1217 39.1951 23.334C39.1951 23.334 35.4649 20.9197 29.7099 22.4509Z" fill="url(#paint0_linear)"/>
<path fill-rule="evenodd" clip-rule="evenodd" d="M39.0507 23.2488C39.1484 23.3038 39.1986 23.3363 39.1986 23.3363C39.5346 23.4067 39.9962 23.5836 40.56 23.8488C41.1191 24.4522 41.6492 25.2417 41.9579 26.2431C42.2564 27.2113 42.3499 28.3792 42.0563 29.7702L58.5301 39.5825L61.402 37.5187L61.5667 37.6363C61.6353 37.6854 61.7039 37.7344 61.7719 37.7835L61.864 37.8492L54.2384 43.3291C54.1396 43.4002 54.0086 43.3945 53.9169 43.3235C54.1912 43.251 54.3896 43.2188 54.3896 43.2188L53.8661 42.9493C53.8821 42.928 53.9016 42.9086 53.9245 42.8922L58.0535 39.9249L41.9236 30.3174C41.8725 30.5042 41.8146 30.6948 41.7494 30.8892C41.3504 32.0797 40.3182 33.6064 37.9342 34.7482L37.3302 34.4372C36.9676 34.6261 36.4717 34.8041 35.8828 34.9709C35.9036 34.9571 35.9268 34.9461 35.9518 34.9384C39.4126 33.8738 40.7834 32.0783 41.2392 30.7183C41.8294 28.9572 41.7924 27.533 41.4437 26.4016C40.9504 24.8015 39.8401 23.7921 39.0507 23.2488ZM36.2242 22.2301C36.4312 22.2746 36.6285 22.3226 36.8159 22.3728C36.8497 22.5312 36.8732 22.691 36.8988 22.8365C37.0247 23.5503 37.1071 24.2626 37.0665 24.9886C36.9395 27.2613 36.0436 29.4561 33.8648 30.4246C32.555 31.0067 30.9909 31.2408 29.5626 31.2136C28.3782 31.191 26.9467 31.0546 25.7713 30.9677C23.0862 30.7693 20.8629 30.4383 17.6783 30.8196C16.5508 30.9546 15.7065 31.3483 15.2192 32.0288C14.7304 32.7116 14.61 33.6701 14.8838 34.9008C15.0727 35.7493 15.4438 36.5344 15.855 37.2947C16.49 38.4683 17.1417 39.676 17.8981 40.7781L25.7974 40.4203L26.1533 40.9427L18.034 41.3105C18.0187 41.3297 18.0005 41.347 17.9794 41.3619C17.8694 41.4398 17.7208 41.4232 17.6301 41.3289L15.1329 41.4419L14.7545 40.9205L17.2686 40.8066C16.5795 39.7652 15.973 38.6436 15.3818 37.5507C14.9469 36.7468 14.5583 35.9149 14.3586 35.0176C14.0434 33.6007 14.219 32.5016 14.7817 31.7156C15.346 30.9275 16.3088 30.4417 17.6144 30.2853C20.8397 29.8992 23.0915 30.2301 25.8109 30.4312C26.9772 30.5174 28.3976 30.6532 29.5729 30.6756C30.9249 30.7014 32.4064 30.484 33.6463 29.9329C35.6319 29.0504 36.4136 27.0297 36.5293 24.9585C36.5675 24.2741 36.4876 23.6028 36.369 22.9299C36.3304 22.711 36.3115 22.4481 36.2242 22.2301Z" fill="#D7441E"/>
<path fill-rule="evenodd" clip-rule="evenodd" d="M23.7334 37.3904L23.8399 37.5468L23.8281 37.5503C23.7976 37.4968 23.766 37.4434 23.7334 37.3904ZM23.3918 36.889C22.0139 35.0459 19.5576 33.5476 18.2564 32.8355C18.1558 32.7809 18.1062 32.664 18.137 32.5537C18.1676 32.4434 18.2705 32.3689 18.3849 32.3741C21.4525 32.6301 24.7031 35.526 25.7458 36.5305C24.2815 36.6714 23.2928 36.7436 23.2928 36.7436L23.3918 36.889Z" fill="#711801"/>
<path d="M23.2305 8.44191C24.8044 8.48113 26.1121 7.23703 26.1513 5.66313C26.1905 4.08923 24.9464 2.78154 23.3725 2.74232C21.7986 2.7031 20.4909 3.94721 20.4517 5.5211C20.4125 7.095 21.6566 8.40269 23.2305 8.44191Z" fill="#E86135"/>
<path fill-rule="evenodd" clip-rule="evenodd" d="M22.0139 3.04975C22.4205 2.84388 22.8824 2.7327 23.3697 2.74488C24.9425 2.78409 26.1877 4.09284 26.1485 5.66571C26.1185 6.86577 25.3495 7.87502 24.288 8.26861L23.5863 6.65835C23.7006 6.66985 23.8222 6.6525 23.9404 6.60219C24.3008 6.44864 24.4939 6.04571 24.3713 5.70297C24.2487 5.36016 23.8565 5.20654 23.4961 5.36009C23.3487 5.42284 23.2293 5.52736 23.148 5.65239L22.0139 3.04975Z" fill="black"/>
<path fill-rule="evenodd" clip-rule="evenodd" d="M29.7114 9.76704C26.4163 9.39463 19.2018 9.73262 13.4164 10.1783C12.326 10.263 11.3154 10.782 10.6114 11.619C9.90732 12.4558 9.569 13.5405 9.67232 14.6292C9.75241 15.446 9.95424 16.2723 10.3659 16.9928C10.3659 16.9928 9.78219 18.6462 11.5796 19.8242C12.1238 20.1799 12.7446 20.4013 13.391 20.4701C14.7746 20.6049 18.5047 20.863 23.5221 20.3642C23.5221 20.3642 28.0238 23.9851 32.9672 21.1084C36.89 18.8256 37.447 10.6414 29.7114 9.76704Z" fill="url(#paint1_linear)"/>
<path fill-rule="evenodd" clip-rule="evenodd" d="M10.3641 16.9928C11.2213 17.6163 12.7166 18.4042 14.4627 18.4857C17.9734 18.6501 27.5133 19.0958 27.5133 19.0958C27.6616 19.1028 27.7764 19.2288 27.7695 19.3772C27.7625 19.5255 27.6365 19.6402 27.4882 19.6333C27.4882 19.6333 17.9482 19.1876 14.4376 19.0232C12.8799 18.9504 11.4206 18.3335 10.2947 17.3132C10.3214 17.1136 10.3641 16.9928 10.3641 16.9928Z" fill="#D7441E"/>
<path fill-rule="evenodd" clip-rule="evenodd" d="M20.8276 9.72857C24.4227 9.57549 27.7541 9.54657 29.7078 9.76738C37.4434 10.6417 37.0254 18.8415 33.0493 21.0302C28.6395 23.4578 24.5436 21.8396 23.3248 20.3948C22.9819 19.9883 22.771 18.8617 22.771 18.8617L20.1259 18.7123L17.012 14.6898L20.8276 9.72857Z" fill="#D7441E"/>
<path fill-rule="evenodd" clip-rule="evenodd" d="M22.7708 18.8618C22.7708 18.8618 25.6104 18.8312 27.1706 18.864C27.2412 18.8654 27.3002 18.9176 27.3104 18.9874C27.3205 19.0572 27.2788 19.1241 27.2116 19.1456L23.3212 20.391C22.9803 19.9812 22.7708 18.8618 22.7708 18.8618Z" fill="#711801"/>
<path fill-rule="evenodd" clip-rule="evenodd" d="M74.9345 20.3024C74.9903 20.3546 72.2731 23.9811 67.2585 22.0483C66.3445 21.696 62.1241 18.657 65.074 13.012C65.8629 11.5027 69.2849 7.05734 76.9044 9.79637C77.8124 10.1227 79.4427 10.8577 82.3502 13.012C83.4324 13.8139 91.7776 21.1284 96.5165 23.0136C97.4601 23.3892 97.6162 23.5009 98.4569 23.9038C98.6943 24.0177 98.923 24.456 98.0157 24.6501C98.0157 24.6501 98.9115 24.6054 98.5308 25.2692C98.5308 25.2692 97.9511 26.0642 97.5946 26.5531C97.409 26.8078 97.109 26.9545 96.7943 26.9452C96.5205 26.9367 96.2145 26.8997 96.0693 26.7812C96.0693 26.7812 95.4397 27.6959 94.0731 26.9861C94.0731 26.9861 93.4913 28.3762 90.7782 26.7812C89.6442 26.1147 88.7484 25.6965 87.8471 25.3492V26.7812L111.89 37.0265C111.89 37.0265 112.745 36.8294 114.091 37.0265L106.306 44.3426L87.1819 39.3907V42.9291C87.1819 42.9291 88.7813 43.4427 88.9696 44.3426H76.363V38.5051C76.363 38.5051 64.3617 39.6193 66.5731 30.0345C66.7837 29.1219 69.716 22.4532 76.363 21.0127L74.9345 20.3024Z" fill="url(#paint2_linear)"/>
<path fill-rule="evenodd" clip-rule="evenodd" d="M88.0567 33.6373V33.637L101.777 38.7321L104.642 33.9378L105.142 34.1507L102.192 39.0859C102.191 39.113 102.185 39.1403 102.176 39.1671C102.154 39.2267 102.113 39.2738 102.062 39.3042L100.023 42.7156L99.4802 42.5751L101.496 39.2018L88.0244 34.199V34.199L88.0406 33.9211L88.0567 33.6373ZM66.3529 31.3246C66.548 32.1194 67.0571 32.8538 67.9086 33.0122C68.947 33.2053 70.1166 32.5615 70.9715 32.0424C72.0819 31.3677 72.8863 30.4571 73.6389 29.4968C74.4177 28.5028 75.1407 27.4557 76.0641 26.5418C76.5054 26.1051 77.1086 25.6377 77.7516 25.4323C78.2164 25.284 78.7006 25.2686 79.1687 25.4729C79.7686 25.735 80.2556 26.2755 80.6215 26.9247C81.1454 27.8556 81.4211 29.0064 81.4655 29.7873C81.6713 33.4485 81.5799 36.8161 81.5086 40.4616L87.183 40.4779V41.0159L76.3641 40.9849V40.4469L80.9705 40.46C81.0411 36.8253 81.134 33.468 80.9282 29.8175C80.8878 29.1004 80.6336 28.0436 80.1527 27.1886C79.848 26.6472 79.4539 26.1845 78.9535 25.9659C78.5197 25.7765 78.0664 25.8578 77.6474 26.0491C77.1873 26.2592 76.767 26.6031 76.4428 26.9241C75.5355 27.8219 74.8273 28.8522 74.0626 29.8287C73.2703 30.8391 72.4188 31.7923 71.2506 32.5022C70.2949 33.0829 68.9719 33.7572 67.8097 33.5411C67.1587 33.4199 66.6563 33.0353 66.3079 32.5287C66.2931 32.1511 66.3072 31.7502 66.3529 31.3246ZM87.8482 26.7813L88.3419 26.9917L88.0298 34.0704L87.6955 39.5235L87.183 39.3908V40.0749C87.1481 40.0261 87.1292 39.9654 87.1333 39.9009C87.1333 39.9009 87.8395 29.2266 87.8415 26.1396L87.8421 26.1181C87.8442 26.0893 87.8462 26.0606 87.8482 26.0325V26.7813ZM75.6081 20.6372C75.8079 20.5991 76.1327 20.5401 76.5477 20.4747L74.6618 18.8504C74.5495 18.7536 74.5367 18.5836 74.6336 18.471C74.7304 18.3585 74.9006 18.3459 75.0129 18.4427L77.1665 20.2973C77.1927 20.3197 77.2129 20.3459 77.2284 20.3743C78.2648 20.232 79.622 20.0927 80.99 20.0881C82.9196 20.0816 84.8647 20.3545 86.004 21.2229C86.577 21.6597 88.3419 23.0342 88.3963 25.5701C88.2127 25.4926 88.0305 25.4195 87.8482 25.3493V25.3624C87.7036 23.2065 86.1796 22.0336 85.6778 21.6507C84.6152 20.8405 82.7918 20.6202 80.9914 20.6262C78.7887 20.6336 76.613 20.9972 75.8146 21.1458C75.9949 21.0976 76.1778 21.0532 76.3641 21.0128L75.6081 20.6372ZM88.0244 34.199L88.0298 34.0704L88.0567 33.6373L88.0406 33.9211L88.0244 34.199Z" fill="#FD9500"/>
<path fill-rule="evenodd" clip-rule="evenodd" d="M93.7184 27.3583L92.3349 26.4432C92.2105 26.3614 92.1769 26.1943 92.2589 26.0704C92.3403 25.9466 92.5078 25.9125 92.6315 25.9944L94.278 27.0832C94.2114 27.0548 94.1428 27.0225 94.0722 26.9858C94.0722 26.9858 93.9848 27.1953 93.7184 27.3583ZM95.6756 27.1053L93.6888 25.7466C93.5657 25.6629 93.5348 25.4953 93.6182 25.3727C93.7023 25.2501 93.8697 25.2187 93.9921 25.3025L96.3118 26.8886C96.213 26.8638 96.1269 26.8291 96.0684 26.7809C96.0684 26.7809 95.9406 26.9662 95.6756 27.1053ZM98.6194 24.9272C98.1587 24.8182 97.8661 24.8266 97.6825 24.8814C97.6422 24.8935 97.6079 24.9095 97.5816 24.9251L97.7484 25.0817C97.8567 25.1832 97.8628 25.3536 97.7612 25.4619C97.6597 25.5703 97.4888 25.5758 97.3805 25.4742L96.3004 24.4614C96.1921 24.3599 96.1861 24.1895 96.2876 24.0811C96.3892 23.9729 96.56 23.9673 96.6683 24.0688L97.1774 24.546C97.3671 24.3805 97.772 24.2043 98.6046 24.3732C98.5192 24.4794 98.3396 24.5803 98.0148 24.6498C98.0148 24.6498 98.5616 24.6226 98.6194 24.9272Z" fill="#FD9500"/>
<path fill-rule="evenodd" clip-rule="evenodd" d="M74.9728 20.3216L74.9345 20.3024C74.9903 20.3546 72.2731 23.9811 67.2585 22.0483C66.3445 21.696 62.1241 18.657 65.074 13.012C65.8629 11.5027 69.2849 7.05734 76.9045 9.79637C77.608 10.0491 78.7439 10.5468 80.5706 11.759C80.8013 12.6897 80.7697 14.2728 78.337 15.1057C78.337 15.1057 79.6465 18.443 75.7227 18.9709C75.7227 18.9709 75.4887 19.5994 74.9728 20.3216Z" fill="#FD9500"/>
<path fill-rule="evenodd" clip-rule="evenodd" d="M74.3179 38.5221L76.3383 30.4661C76.3592 30.3827 76.4392 30.3286 76.5246 30.3408C76.61 30.3529 76.6719 30.4274 76.6685 30.5133L76.3605 38.5077C76.3087 38.5123 75.4801 38.5838 74.3179 38.5221ZM74.9333 20.3149C74.8835 20.369 74.8318 20.4163 74.78 20.4543C74.78 20.4543 72.4193 17.5568 71.2221 16.0876C71.1717 16.0257 71.1743 15.9361 71.2288 15.8775C71.2826 15.8189 71.3721 15.8092 71.4373 15.8547C72.6742 16.6952 74.8472 18.2089 75.6678 19.0142C75.6678 19.0142 75.3402 19.872 74.94 20.3077L74.9347 20.3048C74.936 20.306 74.9353 20.3095 74.9333 20.3149Z" fill="#D7441E"/>
<path fill-rule="evenodd" clip-rule="evenodd" d="M63.6181 5.58502C63.567 5.60869 63.6363 5.47371 63.6383 5.41748C63.6423 5.31263 63.6437 5.20771 63.6464 5.10285C63.6538 4.79838 63.6417 4.49398 63.6437 4.18951C63.6484 3.56678 63.5119 1.79551 64.2409 1.49063C64.6041 1.33877 64.7016 2.01288 64.707 2.23853C64.7279 3.11071 64.1226 3.77662 63.9975 4.59056C63.9914 4.63105 64.0257 4.51355 64.0412 4.47569C64.0735 4.3974 64.1044 4.31857 64.138 4.24076C64.2335 4.02043 64.3297 3.80063 64.4292 3.58211C64.7433 2.89206 65.0487 2.15042 65.5141 1.54491C65.6244 1.40091 65.9479 1.0125 66.1705 1.18233C66.5014 1.43508 66.0522 2.15055 65.9055 2.39227C65.5834 2.92226 65.1664 3.387 64.8187 3.89909C64.4656 4.41785 64.1811 4.99444 63.8206 5.5035" fill="#FFB000"/>
<path d="M66.3494 9.47232C67.9488 9.47232 69.2454 8.17573 69.2454 6.57632C69.2454 4.9769 67.9488 3.68031 66.3494 3.68031C64.75 3.68031 63.4534 4.9769 63.4534 6.57632C63.4534 8.17573 64.75 9.47232 66.3494 9.47232Z" fill="#FFB000"/>
<path d="M60.1087 8.3013C62.1481 8.3013 63.8014 6.64802 63.8014 4.6086C63.8014 2.56918 62.1481 0.915909 60.1087 0.915909C58.0693 0.915909 56.416 2.56918 56.416 4.6086C56.416 6.64802 58.0693 8.3013 60.1087 8.3013Z" fill="black"/>
<path fill-rule="evenodd" clip-rule="evenodd" d="M64.0937 8.39178C63.6928 7.89496 63.4534 7.26341 63.4534 6.57625C63.4534 4.97796 64.7507 3.68031 66.3488 3.68031C66.7698 3.68031 67.1693 3.77017 67.5305 3.93185C67.4545 4.92053 66.9164 6.86068 64.0937 8.39178Z" fill="black"/>
<path fill-rule="evenodd" clip-rule="evenodd" d="M65.0119 48.6785C65.0119 48.6785 63.7548 48.4859 64.6359 47.2505C64.8895 46.8953 65.9488 46.4117 66.5763 47.8798C66.5763 47.8798 67.7432 47.3265 68.0364 48.7941C68.0364 48.7941 69.126 48.267 69.4999 49.747C69.4999 49.747 70.6056 49.6061 70.7516 51.1244C70.9695 53.3889 71.1504 55.0159 71.2836 56.8197C71.2836 56.8197 71.6165 60.2814 74.0828 62.4222C74.0828 62.4222 75.5705 57.4727 80.9759 59.0896L86.0114 61.0804C86.0114 61.0804 88.8604 60.1126 90.2278 62.1027C91.1868 61.3777 92.7344 60.089 93.1548 59.7003C93.3619 59.5086 93.7843 59.3512 94.0083 59.4716C94.1959 59.5725 94.3224 59.937 94.1018 60.1812C94.1018 60.1812 94.5685 59.7904 94.9519 60.1173C95.1005 60.2437 95.2229 60.5033 95.0259 60.9566C95.0259 60.9566 95.5081 60.5154 95.8619 60.8147C96.0004 60.9311 96.2466 61.2243 95.921 61.7213C95.921 61.7213 96.4423 61.303 96.7813 61.6332C96.9319 61.7799 97.0577 62.0825 96.1659 63.1956C95.9237 63.4969 95.6769 63.7955 95.4254 64.0915C93.1158 66.8423 89.307 67.8101 85.965 66.4939C83.8195 65.6532 81.8435 64.875 81.8435 64.875C81.8435 64.875 84.5802 69.8453 84.5614 72.7225C84.5452 75.2857 83.4321 77.9484 80.2502 78.7225C79.5131 78.9027 78.7457 78.9236 77.9998 78.783C75.9155 78.3916 71.2842 76.9167 71.8135 71.5664C71.8135 71.5664 67.8528 68.9757 65.2399 64.764C63.2262 61.5236 62.7177 57.5696 63.8456 53.9256C64.4234 52.0539 65.0899 49.6392 65.0119 48.6785Z" fill="#A8CFCC"/>
<path fill-rule="evenodd" clip-rule="evenodd" d="M93.6996 64.134C93.6996 64.134 95.9459 61.6771 95.9184 61.7195C95.9184 61.7195 96.2815 61.4276 96.599 61.5231C96.5963 61.5265 96.5943 61.5292 96.5916 61.5319L93.9988 64.4044C93.9242 64.4871 93.7964 64.4932 93.7137 64.4185C93.6309 64.3445 93.6249 64.2168 93.6996 64.134ZM92.684 63.4648C92.684 63.4648 95.0265 60.9467 95.0232 60.9548C95.0232 60.9548 95.4173 60.5943 95.7549 60.7463L92.9799 63.7392C92.9046 63.8206 92.7768 63.826 92.6947 63.75C92.6134 63.674 92.6086 63.5462 92.684 63.4648ZM94.1078 60.1726C94.1636 60.1289 94.4844 59.8962 94.7972 60.022L92.0423 62.994C91.9663 63.0761 91.8386 63.0808 91.7572 63.0048C91.6751 62.9295 91.6704 62.8017 91.7464 62.7196L94.1078 60.1726Z" fill="#82B5B2"/>
<path fill-rule="evenodd" clip-rule="evenodd" d="M69.3792 51.0463C69.472 50.5873 69.4976 49.7303 69.5016 49.7463C69.5016 49.7463 69.6738 49.7243 69.891 49.7911C69.887 50.1259 69.8648 50.6835 69.7747 51.1263C69.7525 51.2359 69.6462 51.3066 69.5373 51.2844C69.4276 51.2622 69.357 51.1552 69.3792 51.0463ZM68.4403 48.7027C68.4786 49.0465 68.5082 49.6395 68.4013 50.3964C68.3858 50.5067 68.2836 50.5835 68.1733 50.5679C68.063 50.5523 67.9863 50.4501 68.0018 50.3399C68.0986 49.6536 68.0771 49.1124 68.0442 48.7906C68.0758 48.7762 68.2352 48.7094 68.4403 48.7027ZM66.6432 49.7834C66.7649 48.7018 66.5551 47.8251 66.578 47.879C66.578 47.879 66.7327 47.8058 66.9432 47.7833C67.0393 48.1621 67.153 48.8622 67.0441 49.8285C67.0313 49.9392 66.9317 50.0189 66.8208 50.0065C66.7105 49.994 66.6304 49.8941 66.6432 49.7834ZM64.6531 48.5466C64.6719 48.2439 64.678 48.0448 64.678 48.0448C64.682 47.9335 64.7748 47.8459 64.8865 47.8495C64.9974 47.853 65.0849 47.9462 65.0815 48.0575C65.0815 48.0575 65.0277 48.8507 65.0136 48.6778C65.0136 48.6778 64.8306 48.6497 64.6531 48.5466Z" fill="#82B5B2"/>
<path fill-rule="evenodd" clip-rule="evenodd" d="M71.2755 56.7048L71.2836 56.8171C71.2836 56.8171 71.6165 60.2788 74.0828 62.4196C74.0828 62.4196 75.5705 57.4702 80.976 59.087L84.8621 60.6239L85.842 66.4429C83.7449 65.621 81.8436 64.8725 81.8436 64.8725C81.8436 64.8725 84.5802 69.8427 84.5614 72.72C84.5453 75.2831 83.4322 77.9458 80.2503 78.7199C79.5131 78.9002 78.7457 78.921 77.9999 78.7805C75.9156 78.389 71.2843 76.9141 71.8136 71.5638C71.8136 71.5638 67.8528 68.9731 65.2399 64.7615C63.7596 62.3786 63.0924 59.6103 63.2915 56.8629L71.2755 56.7048Z" fill="#82B5B2"/>
<path fill-rule="evenodd" clip-rule="evenodd" d="M71.8114 71.5657C71.8114 71.5657 74.1284 72.9565 76.0311 73.8457C76.1199 73.8807 76.1696 73.9755 76.1481 74.0683C76.1266 74.1618 76.0391 74.2243 75.9443 74.2163C74.8063 74.1382 73.0334 73.9378 71.843 73.4179C71.7603 72.859 71.7441 72.2436 71.8114 71.5657ZM80.579 67.5605C75.4863 64.1271 73.8392 62.2123 74.0806 62.4214C74.0806 62.4214 74.158 62.1639 74.3423 61.7852C75.1164 62.5546 77.1704 64.4506 80.9549 67.0023C81.4264 67.3198 83.0231 68.3441 84.0979 70.1297C84.3763 71.0532 84.5646 71.9611 84.5592 72.7218C84.5572 73.1287 84.5269 73.5376 84.4651 73.9412C84.4536 73.9076 84.4483 73.8712 84.4483 73.8336C84.4805 70.0289 81.2549 68.0152 80.579 67.5605ZM82.8065 66.8147C82.3102 66.2336 81.4089 65.1601 80.881 64.5306C80.8473 64.4909 80.8473 64.4324 80.881 64.3927C80.9146 64.3531 80.9724 64.3436 81.0168 64.3712L81.8421 64.8756C81.8622 64.912 82.2934 65.6995 82.8065 66.8147Z" fill="#044743"/>
<path d="M88.9441 75.2072C90.6282 75.2072 91.9935 73.842 91.9935 72.1579C91.9935 70.4737 90.6282 69.1085 88.9441 69.1085C87.26 69.1085 85.8948 70.4737 85.8948 72.1579C85.8948 73.842 87.26 75.2072 88.9441 75.2072Z" fill="#A8CFCC"/>
<path fill-rule="evenodd" clip-rule="evenodd" d="M89.8816 69.254C91.1063 69.6495 91.9934 70.8002 91.9934 72.1561C91.9934 73.8389 90.6275 75.2055 88.944 75.2055C87.8403 75.2055 86.8725 74.6177 86.3372 73.738L88.2863 72.7628C88.2499 72.9208 88.262 73.097 88.332 73.2638C88.4968 73.6573 88.9185 73.8564 89.2729 73.7077C89.628 73.5591 89.7827 73.1192 89.6179 72.7258C89.5352 72.5274 89.3859 72.3787 89.2137 72.2987L90.3127 71.7485L89.8816 69.254Z" fill="black"/>
<path fill-rule="evenodd" clip-rule="evenodd" d="M75.497 80.6171C75.497 80.6171 76.142 80.455 77.0392 80.229C80.2547 79.4185 83.6169 80.8424 85.2741 83.7142C86.5036 85.8469 86.252 88.5231 84.6466 90.3888C83.9962 91.1448 83.4844 91.74 83.4844 91.74C83.4844 91.74 84.5054 91.7191 85.6938 91.6942C87.6873 91.6532 89.4407 93.0058 89.9074 94.9448C89.9471 95.1223 89.9908 95.2999 90.0372 95.4761C90.3876 96.793 91.1759 97.9511 92.2722 98.7596C92.6818 99.0629 93.0618 99.4429 93.1465 99.8471C93.1465 99.8471 74.3045 99.8236 65.4428 99.8121C63.6652 99.8101 62.0423 98.8033 61.25 97.2127C60.4584 95.6214 60.6333 93.72 61.7026 92.3002C61.7026 92.3002 54.8963 85.3291 55.18 77.2112C55.3341 72.8018 59.3453 70.2662 62.3019 71.5704C67.3273 73.7858 71.4286 77.1634 75.497 80.6171Z" fill="url(#paint3_linear)"/>
<path fill-rule="evenodd" clip-rule="evenodd" d="M66.1326 86.5032C66.1326 86.5032 62.7947 83.3536 60.3956 81.0891C60.2974 80.9969 60.1448 80.9949 60.0445 81.0857C59.945 81.1765 59.9315 81.3285 60.0136 81.4348C62.0609 84.084 64.9314 87.7986 64.9314 87.7986L66.1326 86.5032Z" fill="#044743"/>
<path fill-rule="evenodd" clip-rule="evenodd" d="M83.4836 91.7407L84.4098 91.7219C83.9598 92.1127 83.339 92.6265 82.5643 93.2049L82.5878 99.8344L81.9152 99.8337L81.8937 93.6939C79.95 95.076 77.2362 96.713 73.944 97.9438C73.7698 98.0091 73.5761 97.921 73.5108 97.7468C73.4462 97.5732 73.5344 97.3789 73.7086 97.3143C78.6297 95.4742 82.23 92.7092 83.8428 91.3224L83.4836 91.7407ZM75.0692 80.256C75.2117 80.3764 75.3536 80.4974 75.4962 80.6178L76.4197 80.3858C74.9602 80.9958 65.0997 85.3682 60.9526 93.786C61.1093 93.2587 61.3595 92.755 61.7019 92.301C61.7019 92.301 61.5405 92.1355 61.2687 91.8262C65.1992 85.4307 72.1959 81.6179 75.0692 80.256Z" fill="#82B5B2"/>
<path fill-rule="evenodd" clip-rule="evenodd" d="M0.858722 96.7814C0.168667 96.3012 2.17117 92.2301 5.3278 87.6963C8.48443 83.1632 11.6075 79.8724 12.2975 80.3532C12.3011 80.3553 12.3045 80.3579 12.3079 80.3606L15.721 82.8828C16.4111 83.363 14.4086 87.434 11.252 91.9678C8.09535 96.5009 4.97228 99.7918 4.28216 99.3109C4.27866 99.3089 4.27523 99.3062 4.2718 99.3035L0.858722 96.7814Z" fill="#FFCD80"/>
<path fill-rule="evenodd" clip-rule="evenodd" d="M11.8688 80.3671L11.8842 80.3611L11.8995 80.3557L11.9145 80.3503L11.9156 80.3496L11.9294 80.3449H11.9308L11.944 80.3402L11.9458 80.3395L11.9585 80.3355H11.9606L11.9728 80.3315L11.9751 80.3308L11.9869 80.3281L11.9895 80.3274L12.0007 80.3241L12.0036 80.3234L12.0145 80.3214L12.0176 80.3207L12.0279 80.318L12.0313 80.3173L12.0412 80.3153L12.0447 80.3147L12.0543 80.3133L12.058 80.3126L12.0672 80.3113H12.0711L12.0798 80.3099L12.0839 80.3093L12.0923 80.3086H12.0965L12.1046 80.3079L12.109 80.3073H12.1166H12.1211L12.1285 80.3066H12.1331H12.1402L12.1448 80.3073H12.1516H12.1563L12.1628 80.3079L12.1676 80.3086L12.1739 80.3093L12.1787 80.3099L12.1847 80.3106L12.1895 80.3113L12.1952 80.312L12.2002 80.3133L12.2057 80.314L12.2106 80.3153L12.2158 80.3167L12.2207 80.318L12.2258 80.3194L12.2355 80.3227L12.245 80.3261L12.2544 80.3294L12.2634 80.3335L12.2679 80.3355L12.2723 80.3382L12.2766 80.3402L12.2809 80.3429L12.2852 80.3456L12.2893 80.3476L12.2935 80.3503L12.2975 80.3537L12.5943 80.5729L12.5947 80.5763C12.6213 80.8426 12.5642 81.2246 12.42 81.6995C12.2961 82.1077 12.1075 82.5913 11.8615 83.1361L15.1663 85.408C15.0934 85.5661 15.0153 85.7302 14.9319 85.8996L11.6303 83.6297C11.5576 83.7804 11.4811 83.9351 11.4009 84.0931L14.6118 86.5292C14.5297 86.6859 14.4441 86.8459 14.3549 87.0101L11.1495 84.5774C10.6054 85.6044 9.92513 86.7572 9.13903 87.9705L12.2263 90.5283C12.1281 90.6776 12.0284 90.8282 11.9272 90.9795L8.8425 88.4238C8.588 88.8085 8.32321 89.1986 8.04934 89.592C7.12752 90.9157 6.20301 92.131 5.336 93.1762L8.45779 95.67L8.46122 95.6727C8.34533 95.814 8.23059 95.9518 8.11713 96.0864L4.99568 93.5931C4.99373 93.5918 4.99178 93.5898 4.9899 93.5884C4.80252 93.8084 4.61837 94.0196 4.43812 94.2213L7.50355 96.7845C7.50584 96.7865 7.50806 96.7878 7.51021 96.7899C7.38787 96.9284 7.26768 97.0616 7.14991 97.19L4.07621 94.6202C3.34964 95.4071 2.69684 96.0252 2.1639 96.4294C1.76843 96.73 1.42993 96.9156 1.17059 96.9836C1.1607 96.9862 1.15088 96.9883 1.14113 96.991L0.858717 96.7818L0.854749 96.7791L0.85078 96.7764L0.846879 96.773L0.843046 96.7704L0.83928 96.767L0.83558 96.7636L0.831948 96.7603L0.828317 96.7569L0.821323 96.7495L0.814597 96.7421L0.808139 96.7347L0.801818 96.7266L0.798791 96.7219L0.795831 96.7179L0.792873 96.7139L0.790047 96.7092L0.787155 96.7044L0.784532 96.7004L0.781708 96.6957L0.779219 96.691L0.776462 96.6856L0.774175 96.6816L0.771485 96.6755L0.7694 96.6715L0.766709 96.6654L0.764826 96.6614L0.762271 96.6547L0.760454 96.6506L0.757967 96.6439L0.756419 96.6399L0.753998 96.6325L0.752518 96.6284L0.750232 96.621L0.748886 96.617L0.746668 96.6089L0.745523 96.6049L0.743439 96.5968L0.742362 96.5928L0.740345 96.5841L0.73947 96.5807L0.737587 96.5713L0.736781 96.5679L0.735032 96.5585L0.734359 96.5545L0.732678 96.545L0.73214 96.541L0.730592 96.5309L0.730189 96.5276L0.728777 96.5168L0.72844 96.5141L0.727163 96.502L0.726894 96.4993L0.725817 96.4872L0.725616 96.4852L0.724742 96.4724L0.724539 96.4704L0.723867 96.4569L0.723733 96.4549L0.723195 96.4408L0.723127 96.4395L0.722791 96.4253V96.424L0.722656 96.4078L0.722724 96.3917L0.72306 96.3749C0.732206 96.0177 0.833899 96.013 0.83168 96.2242C0.831007 96.2901 0.835581 96.3487 0.847956 96.3978C0.855623 96.4287 0.861339 96.4563 0.881786 96.4704C0.902232 96.4845 0.929875 96.4805 0.961486 96.4771C1.0122 96.4711 1.06836 96.4556 1.13017 96.4321C1.32703 96.3567 1.56478 96.2088 1.83872 96.0009C3.22131 94.9517 5.41886 92.4283 7.60773 89.2847C9.79667 86.1411 11.4009 83.204 11.9051 81.5434C12.005 81.2145 12.0611 80.9401 12.0633 80.7296C12.064 80.6637 12.0594 80.6052 12.047 80.5554C12.0393 80.5245 12.0336 80.4976 12.0132 80.4835C11.9927 80.4687 11.9651 80.4734 11.9335 80.4767C11.8827 80.4821 11.8266 80.4983 11.7648 80.5218C11.5679 80.5971 11.5372 80.4996 11.8688 80.3671Z" fill="#FEA424"/>
<path fill-rule="evenodd" clip-rule="evenodd" d="M98.0935 91.2146C97.5958 91.1312 97.2158 90.6981 97.2158 90.1768V88.0717C97.2158 87.4906 97.6873 87.0185 98.2684 87.0185H113.312C113.893 87.0185 114.365 87.4906 114.365 88.0717V90.1768C114.365 90.6981 113.985 91.1312 113.487 91.2146C113.985 91.2987 114.365 91.7318 114.365 92.2531V94.3582C114.365 94.8485 114.029 95.2614 113.574 95.3778C114.017 95.5022 114.342 95.9091 114.342 96.3914V98.4972C114.342 99.0776 113.871 99.5497 113.289 99.5497H98.2462C97.6651 99.5497 97.1936 99.0776 97.1936 98.4972V96.3914C97.1936 95.9011 97.5292 95.4888 97.9839 95.3717C97.5406 95.2473 97.2158 94.8404 97.2158 94.3582V92.2531C97.2158 91.7318 97.5958 91.2987 98.0935 91.2146Z" fill="#FFC367"/>
<path fill-rule="evenodd" clip-rule="evenodd" d="M111.947 90.6974H114.225C114.071 90.9671 113.802 91.1615 113.485 91.2146C113.518 91.22 113.55 91.2274 113.582 91.2355H113.251V94.8445H114.244C114.108 95.1054 113.864 95.3031 113.572 95.3778C113.578 95.3791 113.582 95.3805 113.587 95.3825H111.832V99.5497H111.294V95.3825H106.187V99.5497H105.649V95.3825H101.296V99.5497H100.758V95.3825H100.21V99.5497H99.6715V95.3825H97.9444C97.9572 95.3785 97.9693 95.3751 97.982 95.3717C97.7002 95.2924 97.4655 95.0994 97.333 94.8445H98.4179V91.2355H97.9955C98.0264 91.2274 98.0587 91.22 98.0917 91.2146C97.7749 91.1615 97.5059 90.9671 97.3518 90.6974H100.291V87.0185H100.829V90.6974H101.98V87.0185H102.519V90.6974H105.227V87.0185H105.765V90.6974H111.409V87.0185H111.947V90.6974ZM98.9559 91.2355V94.8445H103.8V91.2355H98.9559ZM104.338 91.2355V94.8445H107.426V91.2355H104.338ZM107.964 91.2355V94.8445H108.761V91.2355H107.964ZM109.299 91.2355V94.8445H112.713V91.2355H109.299Z" fill="#FEA424"/>
<path fill-rule="evenodd" clip-rule="evenodd" d="M116.728 81.514C119.585 80.5556 123.378 82.9486 125.433 87.1192C127.522 91.3597 127.059 95.9049 124.445 97.5184L124.458 97.5453L121.679 98.9886C121.597 99.0371 121.513 99.0828 121.427 99.1252C121.391 99.1426 121.354 99.1601 121.317 99.1769L121.206 99.2348L121.202 99.2274C118.319 100.428 114.356 98.0174 112.238 93.7191C110.065 89.3077 110.653 84.5674 113.551 83.1396C113.551 83.1396 116.061 81.8039 116.244 81.7137C116.385 81.6438 116.53 81.5832 116.677 81.5315L116.724 81.5072L116.728 81.514Z" fill="#FFCD80"/>
<path d="M123.561 96.1784C125.965 95.0954 126.571 91.236 124.915 87.5581C123.258 83.8802 119.966 81.7766 117.562 82.8595C115.158 83.9425 114.551 87.8019 116.208 91.4798C117.865 95.1578 121.157 97.2614 123.561 96.1784Z" fill="#FEA424"/>
<path fill-rule="evenodd" clip-rule="evenodd" d="M117.996 81.3042L118.037 81.3036C117.651 81.3802 117.275 81.5053 116.915 81.6829C115.697 82.2828 114.843 83.3858 114.385 84.7579C113.68 86.865 113.902 89.5983 115.172 92.1743C116.441 94.7509 118.472 96.593 120.573 97.3181C121.94 97.7902 123.334 97.7862 124.552 97.1862C124.913 97.008 125.241 96.7867 125.537 96.5271L125.527 96.5392L125.518 96.552L125.508 96.5641L125.492 96.5843L125.483 96.5957L125.472 96.6092L125.464 96.6193L125.462 96.622L125.446 96.6401L125.438 96.6509L125.424 96.667L125.419 96.6731L125.414 96.6785L125.4 96.6959L125.392 96.7054L125.374 96.7262L125.367 96.7336L125.352 96.7504L125.345 96.7592L125.326 96.78L125.319 96.7874L125.304 96.8042L125.297 96.8116L125.278 96.8331L125.271 96.8405L125.254 96.858L125.249 96.8634L125.228 96.8849L125.222 96.8917L125.202 96.9118L125.2 96.9145L125.198 96.9159L125.178 96.9361L125.171 96.9428L125.15 96.9643L125.146 96.9683L125.127 96.9865L125.121 96.9925L125.099 97.0134L125.094 97.0188L125.074 97.0363L125.07 97.0416L125.047 97.0625L125.041 97.0672L125.021 97.086L125.017 97.0894L124.994 97.1096L124.988 97.115L124.965 97.1358L124.964 97.1365L124.941 97.1567L124.935 97.162L124.911 97.1822L124.908 97.1849L124.886 97.2031L124.88 97.2071L124.856 97.2273L124.851 97.2306L124.83 97.2481L124.826 97.2522L124.801 97.271L124.795 97.2757L124.772 97.2932L124.77 97.2952L124.744 97.3147L124.739 97.3187L124.713 97.3376L124.687 97.3564L124.681 97.3611L124.655 97.3793L124.653 97.3813L124.629 97.3981L124.623 97.4021L124.598 97.4196L124.593 97.423L124.569 97.4385L124.565 97.4418L124.538 97.4593L124.533 97.4633L124.509 97.4788L124.505 97.4808L124.479 97.4976L124.472 97.5017L124.446 97.5185L124.458 97.5454L123.336 98.1285C122.879 98.2005 122.41 98.2126 121.937 98.1675C121.935 98.1689 121.932 98.1702 121.929 98.1716L119.471 99.5328C119.173 99.5227 118.871 99.4844 118.566 99.4192L121.082 98.0256C120.853 97.9718 120.625 97.9052 120.397 97.8265C119.603 97.5521 118.818 97.1284 118.074 96.5722L115.745 98.068C115.596 97.9563 115.447 97.8386 115.3 97.7149L117.629 96.2191C117.456 96.0738 117.286 95.9212 117.119 95.7618L114.734 97.201C114.603 97.0739 114.474 96.9421 114.348 96.8063L116.729 95.3683C115.944 94.537 115.246 93.5429 114.689 92.4124C114.557 92.1447 114.436 91.8757 114.326 91.6053L111.854 92.8697C111.786 92.7016 111.721 92.5334 111.659 92.3653L114.132 91.1002C113.754 90.0443 113.537 88.9829 113.473 87.964L110.945 89.0226C110.933 88.8289 110.927 88.6372 110.926 88.4476L113.453 87.389C113.447 86.5637 113.544 85.7728 113.738 85.043L111.237 86.1198C111.308 85.8797 111.39 85.6484 111.485 85.4271L113.898 84.3886L113.923 84.4472C114.22 83.6152 114.654 82.8794 115.217 82.2828C115.217 82.2828 115.999 81.8389 116.221 81.7253L116.244 81.7138C116.385 81.6439 116.53 81.5834 116.677 81.5316L116.724 81.5074L116.728 81.5141L116.758 81.504L116.763 81.5027L116.792 81.4932L116.798 81.4912L116.827 81.4825L116.831 81.4811L116.86 81.4724L116.864 81.471L116.893 81.463L116.899 81.461L116.928 81.4529L116.933 81.4515L116.963 81.4435L116.965 81.4428L116.995 81.4347L117 81.4334L117.03 81.426L117.035 81.4246L117.066 81.4172H117.067L117.098 81.4098L117.102 81.4085L117.133 81.4018L117.138 81.4011L117.169 81.3944L117.172 81.3937L117.203 81.387H117.205L117.236 81.3802L117.241 81.3796L117.273 81.3735L117.276 81.3728L117.308 81.3668L117.341 81.3614L117.345 81.3607L117.377 81.356L117.38 81.3554L117.413 81.35L117.447 81.3453H117.449L117.481 81.3406L117.485 81.3399L117.517 81.3359H117.52L117.553 81.3318H117.554L117.587 81.3285L117.591 81.3278L117.622 81.3244L117.627 81.3237L117.66 81.3211L117.692 81.3184L117.697 81.3177L117.728 81.3157L117.735 81.315L117.765 81.313L117.771 81.3123L117.79 81.3116L117.819 81.3096L117.83 81.309L117.865 81.3076H117.869L117.91 81.3056L117.952 81.3049H117.953L117.994 81.3042H117.996Z" fill="#FEA424"/>
<path d="M119.538 92.2425C120.496 92.5971 121.423 92.6078 122.341 92.2955C123.422 91.8955 123.755 91.2882 123.375 90.4611C123.045 89.7934 122.484 89.5194 121.691 89.6391C121.327 89.7095 120.94 89.7882 120.511 89.8669C119.736 89.995 119.043 89.901 118.452 89.5934C117.842 89.2774 117.382 88.7897 117.059 88.1347C116.674 87.3537 116.597 86.6405 116.852 85.9869C117.084 85.3416 117.632 84.8648 118.479 84.5481C119.533 84.2026 120.588 84.1968 121.64 84.5182L121.491 85.8892C120.654 85.6691 119.846 85.6755 119.092 85.9295C118.706 86.0669 118.428 86.2843 118.277 86.5901C118.113 86.9001 118.134 87.2776 118.334 87.71C118.464 87.9746 118.67 88.168 118.962 88.3155C119.255 88.463 119.627 88.4933 120.08 88.4357C120.321 88.3943 120.662 88.3323 121.084 88.241C121.923 88.0753 122.645 88.1736 123.262 88.5316C123.86 88.8811 124.321 89.3688 124.638 90.0112C125.447 91.7369 124.894 92.956 123 93.6601C121.772 94.0975 120.503 94.0608 119.211 93.5586L119.538 92.2425Z" fill="#FFCD80"/>
<path fill-rule="evenodd" clip-rule="evenodd" d="M117.806 83.4482L122.454 94.9942L123.933 94.5603L119.062 83.0798L117.806 83.4482Z" fill="#FFCD80"/>
<defs>
<linearGradient id="paint0_linear" x1="40.7447" y1="48.2781" x2="28.6125" y2="13.0978" gradientUnits="userSpaceOnUse">
<stop stop-color="#E86135"/>
<stop offset="0.59" stop-color="#EC6D47"/>
<stop offset="0.8" stop-color="#F6886F"/>
<stop offset="1" stop-color="#FFA396"/>
</linearGradient>
<linearGradient id="paint1_linear" x1="22.6782" y1="15.7868" x2="-0.961057" y2="-0.0277635" gradientUnits="userSpaceOnUse">
<stop stop-color="#E86135"/>
<stop offset="1" stop-color="#FFA396"/>
</linearGradient>
<linearGradient id="paint2_linear" x1="89.0665" y1="26.6329" x2="94.4087" y2="56.0414" gradientUnits="userSpaceOnUse">
<stop stop-color="#FFB000"/>
<stop offset="1" stop-color="#FD9500"/>
</linearGradient>
<linearGradient id="paint3_linear" x1="68.4673" y1="91.5355" x2="51.8419" y2="63.7479" gradientUnits="userSpaceOnUse">
<stop stop-color="#A8CFCC"/>
<stop offset="0.58" stop-color="#B9D5D1"/>
<stop offset="0.8" stop-color="#DDE3DC"/>
<stop offset="1" stop-color="#FFF0E6"/>
</linearGradient>
</defs>
</svg>
