<svg width="128" height="100" viewBox="0 0 128 100" fill="none" xmlns="http://www.w3.org/2000/svg">
<path fill-rule="evenodd" clip-rule="evenodd" d="M35.9155 44.5301C35.9155 44.5301 23.5878 43.1455 18.8142 52.0551C17.2078 55.0529 5.30131 82.8532 4.03914 93.8094C4.03914 93.8094 1.17191 94.7161 0.773682 96.1879H17.6641C17.8431 96.1879 18.0046 96.0803 18.0736 95.9151C19.306 92.9666 30.1212 67.09 30.1212 67.09C30.1212 67.09 31.5118 90.5464 31.7957 95.3389C31.8242 95.8158 32.2192 96.1879 32.6969 96.1879C35.8988 96.1879 47.0515 96.1879 47.0515 96.1879C47.0515 96.1879 46.6557 94.6418 43.7593 93.8094C43.7593 93.8094 45.3255 57.3211 40.9774 48.1853L35.9155 44.5301Z" fill="url(#paint0_linear)"/>
<path fill-rule="evenodd" clip-rule="evenodd" d="M27.7242 72.8172L29.2488 57.4351C29.2593 57.3282 29.3502 57.2477 29.4578 57.2504C29.5647 57.2532 29.6515 57.3386 29.6564 57.4462L30.091 67.1548L27.7242 72.8172Z" fill="#13524E"/>
<path fill-rule="evenodd" clip-rule="evenodd" d="M44.0345 79.7499C44.0345 79.9831 44.0338 80.2143 44.0331 80.4441H30.9137L30.8727 79.7499H44.0345ZM7.74434 79.7499H24.8307L24.5406 80.4441H7.51135L7.51503 80.433C7.58869 80.2123 7.66277 79.9922 7.7372 79.7714L7.74434 79.7499Z" fill="#82B5B2"/>
<path d="M26.4729 23.1664C28.9785 23.1664 31.0098 21.1352 31.0098 18.6295C31.0098 16.1239 28.9785 14.0927 26.4729 14.0927C23.9673 14.0927 21.936 16.1239 21.936 18.6295C21.936 21.1352 23.9673 23.1664 26.4729 23.1664Z" fill="#A8CFCC"/>
<path fill-rule="evenodd" clip-rule="evenodd" d="M26.1378 14.1045C26.3669 15.0292 26.698 17.3611 24.9743 19.4215C24.7916 19.1256 24.4609 18.9277 24.0837 18.9277C23.5088 18.9277 23.0421 19.3872 23.0421 19.953C23.0421 20.5189 23.5088 20.9784 24.0837 20.9784C24.1832 20.9784 24.2794 20.9646 24.3705 20.9389C24.3835 21.2962 24.2911 21.7958 23.8529 22.3325C22.6935 21.5105 21.936 20.1576 21.936 18.6291C21.936 16.2378 23.7901 14.2762 26.1378 14.1045Z" fill="black"/>
<path fill-rule="evenodd" clip-rule="evenodd" d="M22.7365 20.923C22.6075 20.9986 22.2827 20.9873 22.1349 21.0169C21.6503 21.114 21.1685 21.2267 20.6888 21.3453C19.2051 21.7119 17.7425 22.1531 16.3583 22.8085C15.3513 23.2853 14.2969 23.8889 13.8204 24.9456C13.1278 26.4816 14.3588 27.8602 15.959 27.7159C17.5024 27.5768 18.7137 26.4586 19.742 25.4071C20.9452 24.1768 22.319 22.8507 23.2414 21.3824" fill="black"/>
<path fill-rule="evenodd" clip-rule="evenodd" d="M17.4471 31.1247C16.6793 31.9428 9.9241 39.328 4.84849 45.0256C3.1456 46.9528 2.99134 49.7978 4.47588 51.898C4.47567 51.8987 4.47574 51.8987 4.47574 51.8987C5.77963 53.7433 8.13964 54.5133 10.2805 53.7926C12.6003 53.0109 15.7684 51.2058 19.4553 47.1617C21.3281 45.1073 22.817 43.2315 24.0455 42.0831C24.0455 42.0831 29.4354 43.8171 32.2075 40.8451C32.2075 40.8451 38.9752 49.4924 45.5249 52.9394C48.1152 54.2862 51.3067 53.3823 52.8056 50.8767C53.5033 49.7201 53.7963 48.3274 53.0111 46.8153C49.5731 40.1922 44.1745 35.1809 35.9232 27.2474C34.3216 25.707 31.5209 23.5068 26.0967 24.7623C24.053 25.2354 21.5618 26.7406 17.4471 31.1247Z" fill="#A8CFCC"/>
<path fill-rule="evenodd" clip-rule="evenodd" d="M29.3121 36.5708C29.3121 36.5708 29.4899 36.525 29.6995 36.544C29.8773 36.56 30.0876 36.6228 30.1959 36.8465C30.341 37.1474 30.1216 37.3957 29.787 37.6494C29.1087 38.1642 27.9139 38.6143 26.8558 39.0451C26.7135 39.1029 26.6455 39.2651 26.7031 39.407C26.7607 39.5489 26.9232 39.6173 27.0648 39.5595C28.1708 39.1095 29.4142 38.6297 30.123 38.0919C30.7145 37.6432 30.9527 37.1374 30.6958 36.6051C30.4861 36.1709 30.0946 36.022 29.7495 35.9908C29.4364 35.9625 29.1705 36.0339 29.1705 36.0339C29.0219 36.0731 28.9338 36.2252 28.9726 36.3733C29.0122 36.5215 29.1643 36.6101 29.3121 36.5708Z" fill="#82B5B2"/>
<path fill-rule="evenodd" clip-rule="evenodd" d="M31.4851 35.4327C31.4851 35.4327 31.8156 35.1123 32.2654 34.8566C32.5466 34.697 32.8757 34.5583 33.1985 34.5599C33.3304 34.5602 33.4547 34.6174 33.5401 34.7168C33.6255 34.8162 33.663 34.9478 33.6429 35.0772C33.5887 35.389 33.4401 35.8123 33.0569 36.2162C32.53 36.772 31.1963 38.45 26.9488 38.9878C26.7967 39.007 26.6891 39.1462 26.7086 39.2982C26.728 39.4503 26.8669 39.5581 27.0189 39.5388C31.5018 38.971 32.9035 37.1852 33.4603 36.5985C33.9393 36.0938 34.1219 35.5637 34.1913 35.1671C34.2364 34.8721 34.1524 34.5777 33.9622 34.3554C33.7713 34.1331 33.4936 34.005 33.2006 34.0045C32.7841 34.0025 32.3543 34.1674 31.9912 34.3736C31.4754 34.6666 31.0977 35.0345 31.0977 35.0345C30.988 35.1413 30.9852 35.3173 31.0921 35.4272C31.1991 35.537 31.3747 35.5395 31.4851 35.4327Z" fill="#82B5B2"/>
<path fill-rule="evenodd" clip-rule="evenodd" d="M32.2074 37.2535C32.2074 37.2535 31.4957 39.0699 30.7931 39.7718C30.6848 39.8802 30.6848 40.0562 30.7931 40.1646C30.9014 40.273 31.0778 40.273 31.1861 40.1646C31.9428 39.4081 32.7239 37.4582 32.7239 37.4582C32.7801 37.3157 32.7107 37.1542 32.5677 37.0977C32.4253 37.0412 32.2636 37.1111 32.2074 37.2535Z" fill="#82B5B2"/>
<path fill-rule="evenodd" clip-rule="evenodd" d="M30.062 38.4499V39.1035C30.062 39.2568 30.1863 39.3812 30.3397 39.3812C30.4925 39.3812 30.6174 39.2568 30.6174 39.1035V38.4499C30.6174 38.2966 30.4925 38.1721 30.3397 38.1721C30.1863 38.1721 30.062 38.2966 30.062 38.4499Z" fill="#82B5B2"/>
<path fill-rule="evenodd" clip-rule="evenodd" d="M32.0493 27.9552C32.0493 27.9552 31.605 28.1393 31.396 28.6458C31.2676 28.9567 31.2204 29.3985 31.4633 30.0054C31.7438 30.7048 32.4652 32.7748 31.4849 34.3682C31.4043 34.4987 31.4453 34.6698 31.5751 34.7502C31.7063 34.8305 31.8771 34.7898 31.9577 34.6593C33.0504 32.8841 32.2909 30.578 31.9785 29.7987C31.8105 29.3781 31.8202 29.0732 31.9091 28.8578C32.0264 28.5749 32.2673 28.4659 32.2673 28.4659C32.4082 28.4056 32.4742 28.2423 32.4138 28.1013C32.3534 27.9605 32.1902 27.8949 32.0493 27.9552Z" fill="#82B5B2"/>
<path fill-rule="evenodd" clip-rule="evenodd" d="M21.4395 44.9172C20.8294 45.6191 20.1703 46.3772 19.4553 47.1617C15.7684 51.2058 12.6003 53.0109 10.2805 53.7926C8.13964 54.5133 5.77963 53.7433 4.47574 51.8987C4.47574 51.8987 4.47567 51.8987 4.47588 51.898C2.99134 49.7978 3.1456 46.9528 4.84849 45.0256C9.9241 39.328 16.6793 31.9428 17.4471 31.1247C21.5618 26.7406 24.053 25.2354 26.0967 24.7623C31.5209 23.5068 34.3216 25.707 35.9232 27.2474C44.1745 35.1809 49.5731 40.1922 53.0111 46.8153C53.7963 48.3274 53.5033 49.7201 52.8056 50.8767C51.5948 52.9005 49.2795 53.8794 47.0689 53.4712L45.1909 52.7596C42.929 51.5099 40.6546 49.6694 38.6545 47.806C37.5159 46.623 36.7355 45.7218 36.7355 45.7218L40.0534 37.5285L34.7097 33.7394C34.4847 32.1892 34.3959 31.1985 33.9161 30.1713C33.7856 29.8902 33.6252 29.6065 33.4246 29.3078C32.4922 27.9173 31.9049 28.745 31.9049 28.745C31.4716 28.2102 31.0697 27.9639 30.8017 27.8508C30.66 27.7945 30.5011 27.8044 30.3678 27.8778C30.2351 27.9513 30.1421 28.0806 30.1143 28.23C30.0498 28.5976 30.2747 29.012 30.3962 29.2022C30.4337 29.2598 30.4768 29.3138 30.5247 29.3632C33.158 32.0856 31.7021 35.1413 31.7021 35.1413C30.4011 36.7428 28.0781 36.7048 28.0781 36.7048C26.3792 36.8415 25.3107 36.3178 24.7048 35.8402C23.8038 35.1321 22.6121 34.9124 21.5178 35.2528C18.847 36.104 15.9651 38.6395 15.9651 38.6395L21.4395 44.9172Z" fill="url(#paint1_linear)"/>
<path fill-rule="evenodd" clip-rule="evenodd" d="M24.0427 42.0853L26.7651 39.0406C26.7651 39.0406 30.0455 40.5383 31.0848 39.3666L32.4032 41.1033C32.2679 40.936 32.197 40.8448 32.197 40.8448C29.4859 43.7517 24.2699 42.1566 24.0427 42.0853Z" fill="#82B5B2"/>
<path fill-rule="evenodd" clip-rule="evenodd" d="M16.5677 38.1349C16.1832 38.4402 15.957 38.6393 15.957 38.6393L16.4049 39.153L8.2642 45.9014C8.11667 46.0236 7.8977 46.0027 7.77537 45.8556C7.65311 45.7077 7.67359 45.489 7.82112 45.3667L16.4822 38.187C16.5087 38.1651 16.5376 38.1477 16.5677 38.1349ZM39.6454 37.2446C39.7183 37.2492 39.7912 37.2769 39.8509 37.3286L47.7787 44.1985C47.9231 44.324 47.939 44.5434 47.8134 44.6882C47.6877 44.833 47.4683 44.8487 47.3239 44.7232L39.7794 38.1854L40.0453 37.5282L39.6454 37.2446ZM17.3574 37.5334C17.3983 36.8649 17.5141 35.557 17.8286 34.4127C17.8625 34.3072 17.9619 34.2366 18.0727 34.2393C18.1835 34.242 18.2793 34.3173 18.3079 34.4244C18.4786 35.0576 18.7126 35.9293 18.8702 36.5168C18.3116 36.8581 17.7953 37.2133 17.3574 37.5334ZM36.4921 35.009L36.8642 33.2374C36.8781 33.1711 36.9315 33.1202 36.9982 33.1093C37.0648 33.0983 37.1315 33.1295 37.1655 33.1878C37.3759 33.6525 37.6924 34.5474 37.8459 35.969L36.4921 35.009Z" fill="#13524E"/>
<path d="M27.8265 36.8336C30.2619 36.8336 32.2361 34.8864 32.2361 32.4845C32.2361 30.0825 30.2619 28.1353 27.8265 28.1353C25.3911 28.1353 23.4169 30.0825 23.4169 32.4845C23.4169 34.8864 25.3911 36.8336 27.8265 36.8336Z" fill="#FFCD80"/>
<path d="M27.8085 36.1014C29.8493 36.1014 31.5036 34.4697 31.5036 32.4569C31.5036 30.4442 29.8493 28.8125 27.8085 28.8125C25.7678 28.8125 24.1134 30.4442 24.1134 32.4569C24.1134 34.4697 25.7678 36.1014 27.8085 36.1014Z" fill="#FFB000"/>
<path d="M26.5698 33.8905C26.9789 34.1882 27.4457 34.3204 27.9777 34.3004C28.6112 34.2617 28.9102 34.0231 28.8953 33.5837C28.872 33.2259 28.6467 33.0205 28.2193 32.9676C28.0199 32.9505 27.8068 32.9342 27.5729 32.9121C27.1528 32.8656 26.8223 32.7264 26.5889 32.5012C26.3482 32.2695 26.2198 31.978 26.197 31.627C26.1698 31.2085 26.2841 30.8641 26.5537 30.5931C26.8097 30.3229 27.1898 30.175 27.6869 30.1432C28.2944 30.1261 28.8302 30.2685 29.2938 30.5634L28.924 31.1848C28.5474 30.9667 28.1369 30.8587 27.7002 30.874C27.4753 30.8853 27.288 30.9489 27.1455 31.0712C26.9962 31.1939 26.9258 31.3735 26.9339 31.6034C26.9432 31.7451 27.0056 31.8639 27.1221 31.9731C27.2386 32.0824 27.4206 32.1477 27.6623 32.183C27.7931 32.1967 27.9789 32.2144 28.2124 32.2297C28.673 32.2675 29.0175 32.4126 29.2527 32.6649C29.4807 32.9108 29.609 33.2023 29.6314 33.5466C29.6706 34.4656 29.1284 34.9603 28.0183 35.0297C27.3027 35.0658 26.668 34.8743 26.1214 34.4616L26.5698 33.8905Z" fill="#FFCD80"/>
<path fill-rule="evenodd" clip-rule="evenodd" d="M27.5945 29.5365L27.4675 35.5799L28.3095 35.5799L28.3094 29.5365L27.5945 29.5365Z" fill="#FFCD80"/>
<path fill-rule="evenodd" clip-rule="evenodd" d="M10.5632 85.6963C10.1441 85.6207 9.82581 85.2534 9.82581 84.8126V83.0158C9.82581 82.5201 10.2283 82.1174 10.7241 82.1174H20.8149C21.3107 82.1174 21.7132 82.5201 21.7132 83.0158V84.8126C21.7132 85.2534 21.395 85.6207 20.9758 85.6963C21.395 85.7727 21.7132 86.14 21.7132 86.5808V88.3776C21.7132 88.8185 21.395 89.185 20.9758 89.2614C21.395 89.3371 21.7132 89.7043 21.7132 90.1452V91.9419C21.7132 92.3828 21.395 92.7501 20.9758 92.8257C21.395 92.9021 21.7132 93.2687 21.7132 93.7095V95.5063C21.7132 96.002 21.3107 96.4047 20.8149 96.4047H10.7241C10.2283 96.4047 9.82581 96.002 9.82581 95.5063V93.7095C9.82581 93.2687 10.1441 92.9021 10.5632 92.8257C10.1441 92.7501 9.82581 92.3828 9.82581 91.9419V90.1452C9.82581 89.7043 10.1441 89.3371 10.5632 89.2614C10.1441 89.185 9.82581 88.8185 9.82581 88.3776V86.5808C9.82581 86.14 10.1441 85.7727 10.5632 85.6963Z" fill="#FFCD80"/>
<path fill-rule="evenodd" clip-rule="evenodd" d="M19.3302 82.1174V84.9924H21.6605C21.6718 84.9924 21.6829 84.9931 21.6938 84.9938C21.6239 85.3353 21.3603 85.6061 21.0231 85.6866H21.0052V85.6908C20.9951 85.6929 20.985 85.695 20.9747 85.6963C20.985 85.6984 20.9951 85.7005 21.0052 85.7026V88.556H21.6605C21.6718 88.556 21.683 88.5567 21.6939 88.5574C21.6244 88.8983 21.3619 89.169 21.0259 89.2503H20.2834V92.1204H21.6605C21.6719 92.1204 21.683 92.1204 21.6941 92.1217C21.6249 92.4612 21.3636 92.732 21.0286 92.8146H19.1872V96.4047H18.493V92.8146H17.836V96.4047H17.1417V92.8146H12.5309V96.4047H11.8366V92.8146H10.5082C10.1727 92.732 9.91107 92.4605 9.84241 92.1204H14.2048V89.2503H10.511C10.1743 89.169 9.91155 88.8976 9.84254 88.556H10.8426V85.6866H10.5138C10.1761 85.6061 9.91218 85.3339 9.84268 84.9924H12.7584V82.1174H13.4527V84.9924H17.226V82.1174H17.9203V84.9924H18.6359V82.1174H19.3302ZM14.8991 89.2503V92.1204H15.4239V89.2503H14.8991ZM16.1181 89.2503V92.1204H19.5891V89.2503H16.1181ZM11.5369 85.6866V88.556H16.713V85.6866H11.5369ZM17.4072 85.6866V88.556H20.3109V85.6866H17.4072Z" fill="#FDA425"/>
<path fill-rule="evenodd" clip-rule="evenodd" d="M103.916 37.8502C103.441 37.6157 103.114 37.1263 103.114 36.5611V33.6877C103.114 32.8947 103.757 32.2509 104.55 32.2509H126.368C127.161 32.2509 127.804 32.8947 127.804 33.6877V36.5611C127.804 37.1263 127.478 37.6157 127.002 37.8502C127.478 38.0847 127.804 38.5742 127.804 39.1394V42.0128C127.804 42.5097 127.552 42.9481 127.168 43.2061C127.552 43.4641 127.804 43.9024 127.804 44.3994V47.2729C127.804 47.77 127.552 48.2081 127.168 48.4664C127.552 48.7239 127.804 49.1627 127.804 49.6591V52.5327C127.804 53.0298 127.552 53.4678 127.168 53.7261C127.552 53.9844 127.804 54.4225 127.804 54.9195V57.7931C127.804 58.2895 127.552 58.7283 127.168 58.9865C127.552 59.2441 127.804 59.6829 127.804 60.1793V63.0528C127.804 63.5499 127.552 63.988 127.168 64.2463C127.552 64.5045 127.804 64.9426 127.804 65.4397V68.3133C127.804 68.8097 127.552 69.2485 127.168 69.506C127.552 69.7643 127.804 70.2024 127.804 70.6995V73.573C127.804 74.0701 127.552 74.5082 127.168 74.7665C127.552 75.0247 127.804 75.4628 127.804 75.9599V78.8334C127.804 79.3298 127.552 79.7686 127.168 80.0262C127.552 80.2845 127.804 80.7225 127.804 81.2196V84.0932C127.804 84.5903 127.552 85.0284 127.168 85.2866C127.552 85.5442 127.804 85.983 127.804 86.4801V89.3529C127.804 89.85 127.552 90.2888 127.168 90.5464C127.552 90.8046 127.804 91.2427 127.804 91.7398V94.6134C127.804 95.4062 127.161 96.0498 126.368 96.0498H104.55C103.757 96.0498 103.114 95.4062 103.114 94.6134V91.7398C103.114 91.2427 103.366 90.8046 103.75 90.5464C103.366 90.2888 103.114 89.85 103.114 89.3529V86.4801C103.114 85.983 103.366 85.5442 103.75 85.2866C103.366 85.0284 103.114 84.5903 103.114 84.0932V81.2196C103.114 80.7225 103.366 80.2845 103.75 80.0262C103.366 79.7686 103.114 79.3298 103.114 78.8334V75.9599C103.114 75.4628 103.366 75.0247 103.75 74.7665C103.366 74.5082 103.114 74.0701 103.114 73.573V70.6995C103.114 70.2024 103.366 69.7643 103.75 69.506C103.366 69.2485 103.114 68.8097 103.114 68.3133V65.4397C103.114 64.9426 103.366 64.5045 103.75 64.2463C103.366 63.988 103.114 63.5499 103.114 63.0528V60.1793C103.114 59.6829 103.366 59.2441 103.75 58.9865C103.366 58.7283 103.114 58.2895 103.114 57.7931V54.9195C103.114 54.4225 103.366 53.9844 103.75 53.7261C103.366 53.4678 103.114 53.0298 103.114 52.5327V49.6591C103.114 49.1627 103.366 48.7239 103.75 48.4664C103.366 48.2081 103.114 47.77 103.114 47.2729V44.3994C103.114 43.9024 103.366 43.4641 103.75 43.2061C103.366 42.9481 103.114 42.5097 103.114 42.0128V39.1394C103.114 38.5742 103.441 38.0847 103.916 37.8502Z" fill="#FFCD80"/>
<path fill-rule="evenodd" clip-rule="evenodd" d="M121.081 32.2509V37.1212H123.74C123.775 36.9673 123.914 36.8523 124.078 36.8523C124.243 36.8523 124.381 36.9673 124.416 37.1212H127.675C127.55 37.4158 127.33 37.6602 127.053 37.8155H124.425V42.5303H127.692C127.586 42.8072 127.395 43.0428 127.152 43.2061C127.161 43.2121 127.17 43.2183 127.179 43.2246H126.57V47.9061C126.57 47.9172 126.569 47.9283 126.568 47.9394H127.625C127.513 48.1519 127.35 48.3331 127.152 48.4664C127.226 48.5157 127.295 48.5719 127.358 48.6337H123.694V53.0867H127.678C127.569 53.3477 127.384 53.5699 127.152 53.7261C127.178 53.7435 127.204 53.7622 127.228 53.781H125.78V58.3416H127.68C127.571 58.6054 127.386 58.8289 127.152 58.9865C127.176 59.0018 127.199 59.0185 127.222 59.0358H123.315V63.6034H127.68C127.57 63.8658 127.386 64.0894 127.152 64.2463C127.177 64.2629 127.2 64.2796 127.223 64.2977H125.636V68.9076H127.66C127.549 69.1513 127.372 69.3581 127.152 69.506C127.196 69.5359 127.238 69.5678 127.279 69.6018H122.633V74.1055H127.687C127.579 74.3756 127.391 74.6061 127.152 74.7665C127.168 74.7769 127.184 74.788 127.199 74.7998H124.652V79.2993H127.711C127.615 79.5805 127.434 79.8221 127.199 79.9936H122.413V84.634H127.683C127.575 84.9006 127.388 85.1276 127.152 85.2866C127.172 85.2998 127.191 85.3137 127.211 85.3283H125.083V89.8264H127.709C127.611 90.1083 127.427 90.3499 127.189 90.5207H120.167V96.0498H119.472V90.5207H118.07V96.0498H117.376V90.5207H108.257V96.0498H107.562V90.5207H103.698C103.46 90.3499 103.277 90.1083 103.178 89.8264H104.412V85.3283H103.677C103.695 85.3137 103.715 85.2998 103.735 85.2866C103.499 85.1276 103.312 84.9006 103.203 84.634H107.663V79.9936H103.688C103.453 79.8221 103.272 79.5805 103.175 79.2993H104.911V74.7998H103.688C103.703 74.788 103.719 74.7769 103.735 74.7665C103.496 74.6061 103.308 74.3756 103.2 74.1055H106.971V69.6018H103.608C103.649 69.5678 103.69 69.5359 103.735 69.506C103.515 69.3581 103.338 69.1513 103.227 68.9076H104.736V64.2977H103.663C103.687 64.2796 103.711 64.2629 103.735 64.2463C103.502 64.0894 103.316 63.8658 103.207 63.6034H107.221V59.0358H103.665C103.688 59.0185 103.711 59.0018 103.735 58.9865C103.501 58.8289 103.316 58.6054 103.207 58.3416H104.252V53.781H103.659C103.684 53.7622 103.709 53.7435 103.735 53.7261C103.502 53.5699 103.318 53.3477 103.209 53.0867H105.477V48.6337H103.529C103.593 48.5719 103.661 48.5157 103.735 48.4664C103.537 48.3331 103.374 48.1519 103.262 47.9394H109.561V43.2246H106.006C105.961 43.2459 105.911 43.2578 105.858 43.2578C105.804 43.2578 105.754 43.2459 105.709 43.2246H103.708C103.717 43.2183 103.726 43.2121 103.735 43.2061C103.492 43.0428 103.302 42.8072 103.194 42.5303H105.511V37.8155H103.834C103.557 37.6602 103.336 37.4158 103.211 37.1212H105.519C105.555 36.9673 105.693 36.8523 105.858 36.8523C106.022 36.8523 106.161 36.9673 106.196 37.1212H110.559V32.2509H111.253V37.1212H112.006V32.2509H112.701V37.1212H114.696C114.731 36.9673 114.869 36.8523 115.035 36.8523C115.199 36.8523 115.337 36.9673 115.373 37.1212H116.425C116.461 36.9673 116.599 36.8523 116.764 36.8523C116.929 36.8523 117.067 36.9673 117.102 37.1212H120.387V32.2509H121.081ZM105.106 85.3283V89.8264H111.316V85.3283H105.106ZM112.01 85.3283V89.8264H113.071V85.3283H112.01ZM113.765 85.3283V89.8264H124.388V85.3283H113.765ZM108.357 79.9936V84.634H114.806V79.9936H108.357ZM120.394 79.9936H115.501V84.634H120.392V80.0304L120.394 79.9936ZM121.087 84.634H121.719V79.9936H121.084C121.086 80.0054 121.087 80.0179 121.087 80.0304V84.634ZM119.599 74.7998V79.2993H123.958V74.7998H119.599ZM112.029 79.2993H118.904V74.7998H112.023C112.027 74.8206 112.029 74.8421 112.029 74.8637V79.2993ZM111.341 74.7998H105.605V79.2993H111.335V74.8637C111.335 74.8428 111.336 74.8213 111.341 74.8005V74.7998ZM117.011 69.6018V74.1055H121.939V69.6018H117.011ZM115.443 69.6018V74.1055H116.317V69.6018H115.443ZM107.665 69.6018V74.1055H114.749V69.6018H107.665ZM110.705 64.2977V68.9076H119.203V64.2977H110.705ZM105.43 64.2977V68.9076H110.011V64.2977H105.43ZM119.897 64.2977V68.9076H124.942V64.2977H119.897ZM113.927 59.0358V63.6034H114.616V59.0358H113.927ZM110.419 63.6034H113.233V59.0358H107.915V63.6034H110.298C110.317 63.5999 110.337 63.5978 110.358 63.5978C110.379 63.5978 110.399 63.5999 110.419 63.6034ZM115.31 59.0358V63.6034H122.621V59.0358H115.31ZM123.071 58.3416H125.086V53.781H119.402V58.3416H122.865C122.897 58.3312 122.932 58.3256 122.968 58.3256C123.004 58.3256 123.039 58.3312 123.071 58.3416ZM117.73 53.781V58.3416H118.708V53.781H117.73ZM104.946 53.781V58.3416H111.749V53.781H104.946ZM112.443 53.781V58.3416H117.036V53.781H112.443ZM106.171 48.6337V53.0867H107.019V48.6337H106.171ZM115.704 48.6337V53.0867H123V48.6337H115.704ZM107.713 48.6337V53.0867H115.01V48.6337H107.713ZM111.484 43.2246H110.255V47.9394H111.486C111.485 47.9283 111.484 47.9172 111.484 47.9061V43.2246ZM119.878 43.2246H116.912C116.868 43.2459 116.817 43.2578 116.764 43.2578C116.711 43.2578 116.661 43.2459 116.616 43.2246H115.183C115.137 43.2459 115.087 43.2578 115.035 43.2578C114.981 43.2578 114.931 43.2459 114.886 43.2246H112.178V47.9061C112.178 47.9172 112.178 47.9283 112.177 47.9394H119.879C119.878 47.9283 119.878 47.9172 119.878 47.9061V43.2246ZM125.876 43.2246H124.227C124.182 43.2459 124.132 43.2578 124.078 43.2578C124.025 43.2578 123.975 43.2459 123.93 43.2246H120.572V47.9061C120.572 47.9172 120.571 47.9283 120.57 47.9394H125.877C125.876 47.9283 125.876 47.9172 125.876 47.9061V43.2246ZM106.205 37.8155V42.5303H114.688V37.8155H106.205ZM115.382 37.8155V42.5303H116.417V37.8155H115.382ZM117.111 37.8155V42.5303H123.731V37.8155H117.111Z" fill="#FDA425"/>
<path fill-rule="evenodd" clip-rule="evenodd" d="M67.0063 69.7004C66.6223 69.4428 66.3696 69.004 66.3696 68.5076V65.6341C66.3696 64.8412 67.0132 64.197 67.8061 64.197H89.6232C90.4168 64.197 91.0604 64.8412 91.0604 65.6341V68.5076C91.0604 69.004 90.8077 69.4428 90.4237 69.7004C90.8077 69.9587 91.0604 70.3967 91.0604 70.8938V73.7674C91.0604 74.2645 90.8077 74.7026 90.4237 74.9608C90.8077 75.2184 91.0604 75.6572 91.0604 76.1543V79.0271C91.0604 79.5242 90.8077 79.963 90.4237 80.2206C90.8077 80.4788 91.0604 80.9169 91.0604 81.414V84.2876C91.0604 84.7847 90.8077 85.2227 90.4237 85.481C90.8077 85.7386 91.0604 86.1773 91.0604 86.6737V89.5473C91.0604 90.0444 90.8077 90.4825 90.4237 90.7407C90.8077 90.999 91.0604 91.4371 91.0604 91.9342V94.8077C91.0604 95.6006 90.4168 96.2442 89.6232 96.2442H67.8061C67.0132 96.2442 66.3696 95.6006 66.3696 94.8077V91.9342C66.3696 91.4371 66.6223 90.999 67.0063 90.7407C66.6223 90.4825 66.3696 90.0444 66.3696 89.5473V86.6737C66.3696 86.1773 66.6223 85.7386 67.0063 85.481C66.6223 85.2227 66.3696 84.7847 66.3696 84.2876V81.414C66.3696 80.9169 66.6223 80.4788 67.0063 80.2206C66.6223 79.963 66.3696 79.5242 66.3696 79.0271V76.1543C66.3696 75.6572 66.6223 75.2184 67.0063 74.9608C66.6223 74.7026 66.3696 74.2645 66.3696 73.7674V70.8938C66.3696 70.3967 66.6223 69.9587 67.0063 69.7004Z" fill="#FFCD80"/>
<path fill-rule="evenodd" clip-rule="evenodd" d="M85.936 69.1103H90.9305C90.8194 69.3505 90.6438 69.5546 90.4265 69.7004C90.4737 69.7323 90.5188 69.767 90.5626 69.8045H88.5027V74.2999V74.3006H90.9604C90.8528 74.5706 90.6646 74.8004 90.4265 74.9608C90.4424 74.9719 90.4591 74.983 90.4751 74.9948H86.3637V79.4603C86.3637 79.4805 86.3623 79.4999 86.3588 79.5187H90.9763C90.8729 79.8026 90.6827 80.0449 90.4376 80.2129H89.1706V84.7083C89.1706 84.7277 89.1685 84.7472 89.1657 84.7659H90.9812C90.8812 85.0485 90.6958 85.2901 90.4556 85.4602H86.6726V90.0347H90.9777C90.8757 90.3186 90.6868 90.5602 90.4431 90.7289H89.0005V96.2442H88.3062V90.7289H83.8275C83.8275 90.7352 83.8282 90.7407 83.8282 90.7463V96.2442H83.134V90.7463C83.134 90.7407 83.134 90.7352 83.134 90.7289H79.7098C79.6654 90.7498 79.6168 90.7609 79.5654 90.7609C79.5134 90.7609 79.4648 90.7498 79.4203 90.7289H74.9722V96.2442H74.2779V90.7289H73.0644V96.2442H72.3701V90.7289H66.9917C66.748 90.5602 66.5591 90.3186 66.4571 90.0347H71.2475V85.4602H66.9792C66.7396 85.2901 66.5536 85.0485 66.4536 84.7659H68.217V80.2129H66.9979C66.7521 80.0449 66.5619 79.8026 66.4585 79.5187H70.7205V74.9948H66.9597C66.9764 74.983 66.9924 74.9719 67.009 74.9608C66.7702 74.8004 66.5827 74.5706 66.4744 74.3006H67.9928V69.8045H66.873C66.916 69.767 66.9611 69.7323 67.009 69.7004C66.791 69.5546 66.6161 69.3505 66.5043 69.1103H69.6958V64.197H70.3901V69.1103H71.101V64.197H71.7953V69.1103H78.1714V64.197H78.8656V69.1103H85.2417V64.197H85.936V69.1103ZM71.9418 85.4602V90.0347H79.2183V85.4602H71.9418ZM79.9126 85.4602V90.0347H84.6037V85.4602H79.9126ZM85.298 85.4602V90.0347H85.9783V85.4602H85.298ZM68.9113 80.2129V84.7659H74.5279V80.2129H68.9113ZM82.0329 80.2129H75.2221V84.7659H82.0516C82.0398 84.7305 82.0329 84.6923 82.0329 84.6527V80.2129ZM88.4763 80.2129H82.7271V84.6527C82.7271 84.6923 82.7209 84.7305 82.7084 84.7659H88.4805C88.4777 84.7472 88.4763 84.7277 88.4763 84.7083V80.2129ZM71.4148 74.9948V79.5187H76.7495V74.9948H71.4148ZM77.4438 74.9948V79.5187H78.2644V74.9948H77.4438ZM85.6694 74.9948H78.9587V79.5187H82.2731C82.3064 79.5075 82.3425 79.502 82.38 79.502C82.4175 79.502 82.4536 79.5075 82.4876 79.5187H85.6749C85.6715 79.4999 85.6694 79.4805 85.6694 79.4603V74.9948ZM68.6871 69.8045V74.3006H74.8007V69.8045H68.6871ZM75.495 69.8045V74.3006H81.0227V69.8045H75.495ZM81.717 69.8045V74.3006H82.6459V69.8045H81.717ZM87.8084 69.8045H83.3401V74.3006H87.8084V74.2999V69.8045Z" fill="#FDA425"/>
<path fill-rule="evenodd" clip-rule="evenodd" d="M91.0619 49.1411H97.7497C109.256 49.1411 118.598 59.9883 118.598 73.3487C118.598 85.676 110.657 96.0545 100.39 97.5562C99.5291 97.6825 91.107 97.5562 91.107 97.5562C79.601 97.5562 70.259 86.709 70.259 73.3487C70.259 60.0057 79.5767 49.1689 91.0619 49.1411Z" fill="#FDA425"/>
<path d="M91.1066 97.5564C102.62 97.5564 111.954 86.7182 111.954 73.3488C111.954 59.9793 102.62 49.1411 91.1066 49.1411C79.5928 49.1411 70.259 59.9793 70.259 73.3488C70.259 86.7182 79.5928 97.5564 91.1066 97.5564Z" fill="#FFCD80"/>
<path fill-rule="evenodd" clip-rule="evenodd" d="M91.2028 58.9633L90.4829 58.9232L90.4995 57.8491L91.7553 57.919C92.0527 57.9355 92.289 58.1894 92.2844 58.486L92.2564 60.3026C93.3549 60.4131 94.4068 60.6485 95.4109 61.0076C96.6938 61.4661 97.9003 62.127 99.0288 62.9892C99.1568 63.0859 99.2365 63.2328 99.2499 63.3897C99.2619 63.5466 99.2063 63.6986 99.0954 63.8061L96.6369 66.1892C96.4515 66.3684 96.1593 66.382 95.9447 66.2207C94.8315 65.3858 93.58 64.8452 92.1903 64.5979L92.0971 70.6513C97.2658 72.0393 99.7191 74.6625 99.5915 78.3767C99.5302 80.3948 98.7529 82.0261 97.2684 83.2655C95.9114 84.4419 94.1144 85.1481 91.8705 85.3666L91.8224 88.488C91.8178 88.7841 91.5742 89.0106 91.2768 88.994L90.0439 88.9254L90.0604 87.8524L90.7573 87.8912L90.8044 84.8375C90.8085 84.5656 91.0147 84.3485 91.2853 84.3314C93.4921 84.1877 95.249 83.5654 96.555 82.4344C97.8137 81.3835 98.4662 80.0047 98.5184 78.2986C98.6331 74.957 96.2264 72.7694 91.4442 71.5832C91.1921 71.5198 91.013 71.2882 91.017 71.0311L91.126 63.9483C91.1283 63.8003 91.1923 63.6626 91.3016 63.5664C91.4109 63.4715 91.5569 63.4267 91.7047 63.4453C93.3656 63.6423 94.8599 64.194 96.1863 65.0983L97.8798 63.4571C96.9975 62.8498 96.0672 62.3696 95.0861 62.0198C94.0148 61.6363 92.8866 61.4081 91.6984 61.3316C91.4039 61.3129 91.1705 61.0599 91.1751 60.765L91.2028 58.9633ZM91.9374 81.0231C92.7212 80.8301 93.2968 80.5291 93.6472 80.0949C93.8658 79.8142 94.0275 79.4935 94.1322 79.1341L95.1638 79.4775C95.0197 79.9634 94.7988 80.3967 94.498 80.7843C93.9233 81.4954 92.9306 81.9915 91.4933 82.2158C91.3347 82.2403 91.1701 82.1921 91.0452 82.0829C90.9218 81.9738 90.8509 81.816 90.8534 81.6542L90.9118 77.858L91.9852 77.9178L91.9374 81.0231ZM86.2973 65.5081C86.493 65.0331 86.7449 64.6429 87.0474 64.3346C87.0547 64.327 87.0634 64.3194 87.0707 64.3118C87.7517 63.7008 88.555 63.3711 89.4775 63.3225C89.6286 63.3148 89.7802 63.3726 89.8922 63.4799C90.0041 63.5884 90.0665 63.7377 90.0642 63.8892L90.0163 66.998L88.943 66.9383L88.9807 64.487C88.5504 64.5986 88.1632 64.8079 87.8177 65.1149C87.6028 65.3372 87.4288 65.6204 87.2884 65.9606C87.2854 65.9696 87.2809 65.9786 87.2765 65.9875C87.1085 66.3388 87.0271 66.7719 87.0193 67.2803L85.9459 67.2205C85.9563 66.5469 86.0772 65.9771 86.2973 65.5081Z" fill="#FDA31F"/>
<path fill-rule="evenodd" clip-rule="evenodd" d="M86.6916 69.5164C86.1722 68.8833 85.9121 68.12 85.926 67.2215L86.9993 67.2812C86.9898 67.8974 87.1557 68.4235 87.5129 68.8569L87.5256 68.8725C87.8047 69.2372 88.2589 69.5381 88.879 69.7978L88.923 66.9392L89.9964 66.9989L89.9412 70.5828C89.9386 70.7492 89.8586 70.9021 89.7248 70.9969C89.5925 71.0906 89.4196 71.1166 89.2593 71.0651C88.02 70.6677 87.1725 70.1369 86.6916 69.5164Z" fill="#FDA31F"/>
<path fill-rule="evenodd" clip-rule="evenodd" d="M92.0116 75.3496L91.972 77.919L90.8987 77.8592L90.9483 74.638C90.9507 74.4808 91.022 74.3354 91.1428 74.24C91.2651 74.1445 91.4238 74.1086 91.5786 74.1425C93.0735 74.4703 94.0661 75.0091 94.5907 75.6849L94.602 75.7016C95.1116 76.4099 95.3625 77.2095 95.3487 78.1023C95.3411 78.6015 95.2736 79.0606 95.1507 79.4787L94.1191 79.1353C94.2177 78.8032 94.2693 78.4385 94.2754 78.0426C94.2853 77.4011 94.1101 76.8262 93.7469 76.3167C93.4168 75.8964 92.8334 75.586 92.0116 75.3496Z" fill="#FDA31F"/>
<path fill-rule="evenodd" clip-rule="evenodd" d="M88.8163 74.5451C83.8474 73.1579 81.5166 70.607 81.6852 67.0363C81.7616 64.8825 82.4787 63.2351 83.8037 62.0799C85.0165 61.023 86.7565 60.3767 89.0376 60.1729L89.0663 58.3058C89.0709 58.0093 89.3146 57.7821 89.6106 57.7986L90.4899 57.8475L90.4734 58.9216L90.1314 58.9026L90.1037 60.7043C90.0995 60.9774 89.8919 61.1956 89.6198 61.2114C87.3815 61.3476 85.6789 61.8983 84.5259 62.9034C83.4035 63.8827 82.8238 65.2919 82.7581 67.1248C82.6068 70.3231 84.8953 72.4375 89.4733 73.6203C89.7226 73.6847 89.9002 73.9151 89.8963 74.1699L89.782 81.5935C89.7796 81.745 89.7128 81.8848 89.6006 81.9808C89.4869 82.0767 89.3367 82.1177 89.1861 82.0956C87.8445 81.8946 86.7111 81.5306 85.7872 81.0117C84.9739 80.5989 84.2481 80.1025 83.6084 79.5213L81.5256 81.1397C82.5076 81.8996 83.5991 82.5553 84.7957 83.1077C86.1925 83.7368 87.6638 84.1035 89.211 84.2103C89.5055 84.2313 89.7375 84.4831 89.7329 84.7769L89.6859 87.8306L90.0509 87.8509L90.0344 88.9238L89.132 88.8736C88.836 88.8571 88.5997 88.604 88.6043 88.3079L88.6516 85.237C87.1641 85.0807 85.7434 84.6961 84.3852 84.0841C82.8673 83.384 81.5157 82.5301 80.3246 81.5231C80.1997 81.4174 80.1259 81.2605 80.1255 81.0986C80.1237 80.9365 80.1965 80.7855 80.3217 80.6879L83.2895 78.3826C83.4991 78.2185 83.8064 78.2437 84.0018 78.4418C84.6405 79.0872 85.3915 79.6263 86.2506 80.0612L86.2734 80.0728C86.9577 80.4589 87.7731 80.7432 88.7179 80.9301L88.8163 74.5451Z" fill="#FDA31F"/>
<path fill-rule="evenodd" clip-rule="evenodd" d="M90.0996 53.9276C98.5089 53.9276 105.263 62.6732 105.263 73.3748C105.263 84.0758 98.5089 92.8214 90.0996 92.8214C89.7931 92.8214 89.5439 93.0702 89.5439 93.3767C89.5439 93.6833 89.7931 93.9326 90.0996 93.9326C99.0411 93.9326 106.373 84.7528 106.373 73.3748C106.373 61.9963 99.0411 52.817 90.0996 52.817C89.7931 52.817 89.5439 53.0658 89.5439 53.3723C89.5439 53.6789 89.7931 53.9276 90.0996 53.9276Z" fill="#FDA425"/>
<path fill-rule="evenodd" clip-rule="evenodd" d="M90.1206 92.8214C81.7109 92.8214 74.9573 84.0758 74.9573 73.3748C74.9573 62.6732 81.7109 53.9276 90.1206 53.9276C90.4272 53.9276 90.6758 53.6789 90.6758 53.3723C90.6758 53.0658 90.4272 52.817 90.1206 52.817C81.1792 52.817 73.8464 61.9963 73.8464 73.3748C73.8464 84.7528 81.1792 93.9326 90.1206 93.9326C90.4272 93.9326 90.6758 93.6833 90.6758 93.3767C90.6758 93.0702 90.4272 92.8214 90.1206 92.8214Z" fill="#FDA425"/>
<path fill-rule="evenodd" clip-rule="evenodd" d="M106.367 95.5655H98.4119C98.1057 95.5655 97.8564 95.3163 97.8564 95.0101C97.8564 94.7032 98.1057 94.4547 98.4119 94.4547H107.967C108.032 94.4547 108.093 94.4658 108.151 94.4859C107.573 94.8782 106.978 95.2385 106.367 95.5655ZM115.442 86.2131C115.241 86.5901 115.032 86.9608 114.814 87.3239H107.175C106.868 87.3239 106.619 87.0754 106.619 86.7685C106.619 86.4616 106.868 86.2131 107.175 86.2131H115.442ZM116.949 82.8223C116.813 83.1979 116.669 83.568 116.518 83.9331H107.967C107.66 83.9331 107.412 83.6846 107.412 83.3777C107.412 83.0716 107.66 82.8223 107.967 82.8223H116.949ZM118.539 71.5482C118.562 71.9169 118.578 72.2869 118.587 72.659H110.959C110.652 72.659 110.404 72.4105 110.404 72.1036C110.404 71.7974 110.652 71.5482 110.959 71.5482H118.539ZM117.325 65.0096C117.44 65.3762 117.549 65.747 117.65 66.1205H109.34C109.033 66.1205 108.784 65.8719 108.784 65.5651C108.784 65.2589 109.033 65.0096 109.34 65.0096H117.325ZM116.185 62.0417C116.351 62.4069 116.51 62.7769 116.66 63.1525H109.04C108.734 63.1525 108.485 62.9039 108.485 62.5971C108.485 62.2909 108.734 62.0417 109.04 62.0417H116.185ZM108.796 52.817C109.275 53.1655 109.741 53.5356 110.193 53.9278H101.404C101.098 53.9278 100.849 53.6786 100.849 53.3724C100.849 53.0656 101.098 52.817 101.404 52.817H108.796Z" fill="#FFCD80"/>
<path fill-rule="evenodd" clip-rule="evenodd" d="M72.6625 9.03254C73.1538 7.33769 74.5542 2.4931 75.5646 0.328256L81.3811 3.4837C81.3811 3.4837 78.8752 12.5375 78.3348 15.1339L71.5698 13.5251C71.7752 12.1105 72.168 10.7377 72.6625 9.03254Z" fill="#82B5B2"/>
<path d="M75.7468 10.887C76.8604 10.887 77.7632 9.94218 77.7632 8.77673C77.7632 7.61129 76.8604 6.6665 75.7468 6.6665C74.6332 6.6665 73.7305 7.61129 73.7305 8.77673C73.7305 9.94218 74.6332 10.887 75.7468 10.887Z" fill="#A8CFCC" fill-opacity="0.63"/>
<path fill-rule="evenodd" clip-rule="evenodd" d="M74.3168 11.3721C74.6452 10.4567 76.4774 5.70872 77.6076 4.2818L82.8722 7.2406C82.8722 7.2406 80.0348 14.78 79.3877 16.9509L73.1519 15.2543C73.4212 14.0671 73.8031 12.8037 74.3168 11.3721Z" fill="#A8CFCC"/>
<path d="M77.9477 13.0461C79.0613 13.0461 79.9641 12.1014 79.9641 10.9359C79.9641 9.77046 79.0613 8.82568 77.9477 8.82568C76.8341 8.82568 75.9314 9.77046 75.9314 10.9359C75.9314 12.1014 76.8341 13.0461 77.9477 13.0461Z" fill="#82B5B2"/>
<path d="M90.9825 11.7695C93.4386 11.7695 95.4298 9.77837 95.4298 7.32219C95.4298 4.86601 93.4386 2.87488 90.9825 2.87488C88.5263 2.87488 86.5352 4.86601 86.5352 7.32219C86.5352 9.77837 88.5263 11.7695 90.9825 11.7695Z" fill="#E86135"/>
<path fill-rule="evenodd" clip-rule="evenodd" d="M88.0181 4.00264C88.8047 3.30136 89.8412 2.87488 90.9763 2.87488C93.4312 2.87488 95.4238 4.86769 95.4238 7.32218C95.4238 8.16432 95.1891 8.95217 94.7823 9.62359C91.4797 8.13988 91.9636 4.5602 91.9636 4.5602C90.1481 5.15331 88.7922 4.55263 88.0181 4.00264Z" fill="black"/>
<path fill-rule="evenodd" clip-rule="evenodd" d="M71.9218 63.8446C71.9218 63.8446 70.6214 61.3286 71.9218 59.4437L69.6133 55.3878C69.6133 55.3878 68.4914 54.6693 67.2175 53.8528C64.337 52.0068 62.6846 48.7444 62.9005 45.3307C62.9172 45.0705 62.947 44.832 62.9922 44.6234C61.6675 43.3735 60.5734 40.5683 60.976 37.8842C60.976 37.8842 60.976 37.8842 60.976 37.8842C61.5363 34.1458 64.6417 31.313 68.4157 31.098C74.4891 30.7535 84.9121 30.518 91.3201 32.3557L89.8789 28.7676C89.8789 28.7676 79.6246 32.4343 77.0274 24.014C71.1407 26.391 64.5855 28.1286 58.1039 29.0688C55.3942 29.4632 52.7206 28.1494 51.3772 25.7632C51.3744 25.7648 51.3744 25.7648 51.3744 25.7648C50.2379 23.7465 50.601 21.2163 52.2589 19.5986C53.9258 17.9904 56.7688 15.9099 61.6238 13.5164C61.6238 13.5164 66.4871 10.9447 69.335 9.43879C70.6075 8.76605 72.1162 8.70746 73.4367 9.2796C76.2422 10.4947 80.8771 12.5027 80.8771 12.5027L81.4186 11.1359C84.6372 11.6719 87.7995 12.6469 90.9001 13.8535C94.193 15.1391 96.7444 17.8205 97.8643 21.1726C100.622 29.4274 105.829 45.2767 106.512 49.2471H108.464C109.561 49.2471 110.512 50.008 110.751 51.0785C110.938 51.9151 111.118 52.7226 111.118 52.7226C111.118 52.7226 112.362 54.1132 112.726 55.3878C112.874 55.9071 112.045 56.5125 111.118 55.5399C110.844 55.2517 108.181 53.1502 106.985 53.019C106.07 52.9183 105.26 52.8135 104.506 52.7212C102.189 52.4372 100.132 51.1001 98.932 49.0971C98.1295 47.7586 97.3915 46.527 97.3915 46.527C97.3915 46.527 94.8893 50.5398 88.021 49.8157L89.0881 63.687C89.0881 63.687 87.7176 63.3628 87.2594 61.1231C87.2594 61.1231 79.5191 60.0921 75.1105 58.2253C75.1105 58.2253 73.3714 59.9519 71.9218 63.8446Z" fill="url(#paint2_linear)"/>
<path fill-rule="evenodd" clip-rule="evenodd" d="M106.479 49.0485C106.492 49.1179 106.504 49.1839 106.515 49.2471H107.439C107.886 49.5609 108.566 50.0538 109.302 50.6411L109.539 50.3745C109.641 50.26 109.817 50.2496 109.931 50.3516C110.046 50.453 110.056 50.6286 109.954 50.7432L109.734 50.991C110.152 51.3361 110.577 51.7054 110.979 52.0845L111.121 52.7225L106.597 49.3415C106.498 49.2762 106.454 49.1575 106.479 49.0485Z" fill="#D7441E"/>
<path fill-rule="evenodd" clip-rule="evenodd" d="M80.0649 59.7706L83.9104 48.8527C83.9743 48.6715 84.1728 48.5764 84.3533 48.6402C84.5338 48.7041 84.6289 48.902 84.5658 49.0832L80.7445 59.9303C80.5189 59.8789 80.2926 59.8255 80.0649 59.7706ZM69.6072 55.3878C69.6072 55.3878 71.0957 56.1882 72.3766 56.8506C73.9998 57.6913 75.7 58.4772 75.1044 58.2252C75.1044 58.2252 74.9384 58.3904 74.6663 58.7327C73.2063 58.0787 71.5254 57.197 70.2369 56.4944L69.6072 55.3878ZM62.4563 44.0238C63.5706 38.679 67.7362 35.6423 72.5821 33.9531C79.4317 31.5654 87.633 31.889 90.1983 32.0654C90.5753 32.1541 91.1231 32.2716 91.4758 32.3724C91.4959 32.4223 91.6507 32.5181 91.6452 32.5751C91.625 32.7657 91.8895 32.9053 91.6986 32.8856C91.6986 32.8856 81.0472 32.2126 72.8105 34.6087C67.6966 36.0962 64.1614 39.8021 62.986 44.6233C62.8041 44.4515 62.6264 44.2502 62.4563 44.0238Z" fill="#D7441E"/>
<path fill-rule="evenodd" clip-rule="evenodd" d="M88.0913 50.5036C86.8118 50.3072 85.1886 49.7747 83.4766 49.0783C78.4599 47.04 72.6524 43.6286 72.6524 43.6286C72.4871 43.5315 72.4323 43.3186 72.5288 43.1534C72.626 42.9883 72.8391 42.9329 73.0043 43.03C73.0043 43.03 78.7626 46.4137 83.7376 48.4354C85.533 49.1651 88.1851 49.833 88.0296 49.817L88.0913 50.5036Z" fill="#8A2208"/>
<path fill-rule="evenodd" clip-rule="evenodd" d="M90.9244 31.3694L89.8789 28.7676C89.8789 28.7676 79.6246 32.4343 77.0274 24.014C71.1407 26.391 64.5855 28.1286 58.1039 29.0688C55.3942 29.4632 52.7206 28.1494 51.3772 25.7632C51.3744 25.7649 51.3744 25.7649 51.3744 25.7649C50.2379 23.7465 50.601 21.2163 52.2589 19.5986C53.9258 17.9904 56.7688 15.9099 61.6238 13.5164C61.6238 13.5164 66.4871 10.9447 69.335 9.43879C70.6075 8.76605 72.1162 8.70746 73.4367 9.2796C76.2422 10.4947 80.8771 12.5027 80.8771 12.5027L81.4186 11.1359C84.6372 11.6719 87.7995 12.6469 90.9001 13.8535C94.193 15.1391 96.7444 17.8205 97.8643 21.1726C99.5208 26.1304 102.06 33.8277 103.972 40.0453L95.98 42.4825C94.2465 38.8469 92.4886 35.2408 90.9522 31.3739L90.9244 31.3694Z" fill="#D7441E"/>
<path fill-rule="evenodd" clip-rule="evenodd" d="M88.3918 29.1744C88.1377 27.9051 88.078 26.5728 88.1016 25.2137C88.1023 25.1389 88.1564 25.0754 88.23 25.0616C88.3036 25.0478 88.3765 25.0875 88.405 25.1567C89.0826 26.8084 90.7418 30.8508 90.7418 30.8508H90.7162L89.8789 28.7669C89.8789 28.7669 89.3033 28.9726 88.3918 29.1744ZM66.4184 20.9609L57.8866 25.7671C57.7193 25.8611 57.6603 26.073 57.754 26.2399C57.8484 26.4068 58.0602 26.466 58.2275 26.3719L66.7593 21.5658C66.9266 21.4718 66.9856 21.2599 66.8912 21.093C66.7974 20.9261 66.5857 20.8669 66.4184 20.9609ZM75.2306 24.7112C75.5535 22.3762 76.3213 20.7389 76.8559 19.8357C76.8899 19.7858 76.9559 19.7687 77.0107 19.7954C77.0649 19.822 77.092 19.8845 77.0732 19.9424C76.5213 21.9265 76.9955 23.8871 77.026 24.0075L77.0274 24.0133C76.4352 24.2525 75.836 24.4851 75.2306 24.7112Z" fill="#8A2208"/>
<path fill-rule="evenodd" clip-rule="evenodd" d="M61.9934 13.3193L69.3318 9.43879C70.6043 8.76605 72.113 8.70746 73.4335 9.2796L80.6718 12.4153C80.7204 12.4477 80.7649 12.4768 80.8044 12.5027C82.0111 13.2934 81.0578 14.0751 80.7204 13.9636C81.5445 14.3552 81.5168 15.006 81.3224 15.288C81.0023 15.7532 79.8568 15.5835 79.8568 15.5835C80.1754 15.6971 80.4677 16.319 80.2206 16.7803C79.8234 17.5218 78.7369 17.0713 78.7369 17.0713C78.9341 18.1054 77.8649 18.1088 76.5604 17.8326C75.5503 17.6187 75.0872 17.3923 74.2277 17.1779C72.8385 20.8824 68.6903 20.4545 68.6903 20.4545L65.9569 22.0041L61.9934 13.3193Z" fill="url(#paint3_linear)"/>
<path fill-rule="evenodd" clip-rule="evenodd" d="M78.7395 17.0931L74.0942 15.2899C73.9512 15.2344 73.8804 15.0734 73.9359 14.9305C73.9915 14.7876 74.1525 14.7167 74.2955 14.7721L80.044 17.0038C79.5706 17.4178 78.7354 17.0716 78.7354 17.0716C78.7367 17.0789 78.7381 17.086 78.7395 17.0931ZM79.9253 15.6173L74.6441 13.567C74.501 13.5116 74.4302 13.3506 74.4858 13.2077C74.5413 13.0648 74.7024 12.9938 74.8454 13.0492L80.8987 15.3993C80.9542 15.4208 80.9986 15.4583 81.0292 15.5044C80.571 15.6899 79.8552 15.5838 79.8552 15.5838C79.8788 15.5923 79.9024 15.6035 79.9253 15.6173ZM80.7751 13.974L75.2772 11.8396C75.1342 11.7842 75.0627 11.6231 75.1183 11.4802C75.1738 11.3373 75.3349 11.2664 75.4779 11.3219L81.3291 13.5934C81.2076 13.8328 80.9459 13.9841 80.7751 13.974Z" fill="#D7441E"/>
<path fill-rule="evenodd" clip-rule="evenodd" d="M64.127 93.8917C63.734 93.6272 63.4744 93.178 63.4744 92.6691V89.7247C63.4744 88.9124 64.1339 88.2529 64.9469 88.2529H87.3028C88.1151 88.2529 88.7747 88.9124 88.7747 89.7247V92.6691C88.7747 93.178 88.5157 93.6272 88.122 93.8917C88.5157 94.1562 88.7747 94.6054 88.7747 95.1143V98.0586C88.7747 98.8716 88.1151 99.5312 87.3028 99.5312H64.9469C64.1339 99.5312 63.4744 98.8716 63.4744 98.0586V95.1143C63.4744 94.6054 63.734 94.1562 64.127 93.8917Z" fill="#FFDBA3"/>
<path fill-rule="evenodd" clip-rule="evenodd" d="M82.092 93.2953H88.634C88.5202 93.5376 88.3417 93.7438 88.121 93.8917C88.1661 93.9222 88.2091 93.9549 88.2508 93.9896H86.1312V99.5312H85.4369V93.9896H79.6336V99.5312H78.9394V93.9896H78.0535V99.5312H77.3592V93.9896H68.3949V99.5312H67.7006V93.9896H63.9968C64.0377 93.9549 64.0808 93.9222 64.1259 93.8917C63.9058 93.7438 63.7274 93.5376 63.6135 93.2953H71.7399V88.2529H72.4341V93.2953H73.32V88.2529H74.0143V93.2953H81.3977V88.2529H82.092V93.2953Z" fill="#FDA425"/>
<defs>
<linearGradient id="paint0_linear" x1="23.9125" y1="70.3197" x2="23.7717" y2="110.003" gradientUnits="userSpaceOnUse">
<stop stop-color="#A8CFCC"/>
<stop offset="1" stop-color="#59A09B"/>
</linearGradient>
<linearGradient id="paint1_linear" x1="28.4689" y1="39.2252" x2="30.3026" y2="74.455" gradientUnits="userSpaceOnUse">
<stop stop-color="#82B5B2"/>
<stop offset="0.45" stop-color="#A7C6C1"/>
<stop offset="1" stop-color="#FFF0E6"/>
</linearGradient>
<linearGradient id="paint2_linear" x1="93.5022" y1="46.4339" x2="54.3396" y2="11.7311" gradientUnits="userSpaceOnUse">
<stop stop-color="#E86135"/>
<stop offset="0.48" stop-color="#EE734F"/>
<stop offset="1" stop-color="#FFA396"/>
</linearGradient>
<linearGradient id="paint3_linear" x1="71.7172" y1="16.5975" x2="74.5268" y2="-1.84949" gradientUnits="userSpaceOnUse">
<stop stop-color="#E86135"/>
<stop offset="1" stop-color="#FFA396"/>
</linearGradient>
</defs>
</svg>
