<svg width="47" height="47" viewBox="0 0 47 47" fill="none" xmlns="http://www.w3.org/2000/svg">
<g clip-path="url(#clip0)">
<path d="M24.6632 5.31773C24.6481 5.31773 24.6331 5.31718 24.618 5.31718C14.8055 5.31718 6.85083 13.2718 6.85083 23.0844C6.85083 32.897 14.8055 40.8516 24.618 40.8516C24.6331 40.8516 24.6481 40.8511 24.6632 40.8511V5.31773Z" fill="#FDB441"/>
<path d="M24.6632 14.4839C24.2891 14.4839 23.9858 14.1807 23.9858 13.8065V0.687246C23.9858 0.31309 24.2891 0.00991821 24.6632 0.00991821C25.0372 0.00991821 25.3405 0.31309 25.3405 0.687246V13.8066C25.3405 14.1807 25.0372 14.4839 24.6632 14.4839Z" fill="#FEC165"/>
<path d="M24.6632 46.1892C24.2891 46.1892 23.9858 45.8861 23.9858 45.5119V36.9884C23.9858 36.6143 24.2891 36.3111 24.6632 36.3111C25.0372 36.3111 25.3405 36.6143 25.3405 36.9884V45.5119C25.3405 45.886 25.0372 46.1892 24.6632 46.1892Z" fill="#FEC165"/>
<path d="M24.6635 9.21037C16.9428 9.21037 10.6843 15.4689 10.6843 23.1895C10.6843 30.683 16.5801 36.7988 23.9861 37.1521L24.0028 37.113L24.1802 37.1406L24.2571 37.1624C24.3921 37.1663 24.5275 37.1688 24.6635 37.1688L29.3012 31.2126V14.0741L24.6635 9.21037Z" fill="#FEDF30"/>
<path d="M15.7262 23.3039C15.7262 17.1756 19.3614 11.861 24.6796 9.22771L24.6645 9.21037C16.9438 9.21037 10.6843 15.4692 10.6843 23.1899C10.6843 30.7745 16.7254 36.9473 24.258 37.1624C19.1709 34.4613 15.7262 29.2683 15.7262 23.3039Z" fill="#FED402"/>
<path d="M24.6646 9.21037C32.3852 9.21037 38.6427 15.4692 38.6427 23.1899C38.6427 30.9105 32.3842 37.169 24.6636 37.169L24.6646 9.21037Z" fill="#F3EAE6"/>
<path d="M4.30363 23.8672H2.34163C1.96757 23.8672 1.66431 23.564 1.66431 23.1899C1.66431 22.8157 1.96757 22.5126 2.34163 22.5126H4.30372C4.67778 22.5126 4.98105 22.8157 4.98105 23.1899C4.98096 23.564 4.67769 23.8672 4.30363 23.8672Z" fill="#FEDBA6"/>
<path d="M16.5248 5.67555C16.2659 5.67555 16.0187 5.52636 15.9061 5.27466L14.8553 2.92614C14.7026 2.58476 14.8555 2.18406 15.197 2.03134C15.5386 1.87863 15.9392 2.03152 16.0919 2.37299L17.1426 4.72151C17.2954 5.06288 17.1425 5.46359 16.801 5.6163C16.7112 5.65649 16.6172 5.67555 16.5248 5.67555Z" fill="#FEDBA6"/>
<path d="M6.05325 15.1669C5.95716 15.1669 5.85962 15.1463 5.76678 15.103L3.99191 14.2732C3.65307 14.1148 3.50677 13.7116 3.66526 13.3727C3.82367 13.0339 4.2269 12.8876 4.56566 13.0461L6.34053 13.8758C6.67937 14.0342 6.82567 14.4374 6.66727 14.7763C6.55221 15.0223 6.3081 15.1669 6.05325 15.1669Z" fill="#FEDBA6"/>
<path d="M10.2041 9.28004C10.0297 9.28004 9.85552 9.21321 9.72303 9.07956L1.86693 1.15428C1.60358 0.888492 1.60548 0.459698 1.87117 0.196353C2.13678 -0.0670829 2.56566 -0.0651863 2.829 0.200507L10.6852 8.12588C10.9485 8.39157 10.9466 8.82036 10.681 9.08371C10.5489 9.21475 10.3765 9.28004 10.2041 9.28004Z" fill="#FEC165"/>
<path d="M15.4733 44.4077C15.3809 44.4077 15.287 44.3886 15.197 44.3484C14.8556 44.1957 14.7026 43.795 14.8554 43.4536L15.9061 41.1051C16.0589 40.7637 16.4594 40.6106 16.801 40.7635C17.1425 40.9162 17.2955 41.3169 17.1427 41.6583L16.0919 44.0068C15.9795 44.2584 15.7322 44.4077 15.4733 44.4077Z" fill="#FEDBA6"/>
<path d="M4.27924 33.3977C4.02439 33.3977 3.78028 33.2531 3.66522 33.0071C3.50682 32.6681 3.65303 32.265 3.99188 32.1066L5.76675 31.2768C6.10577 31.1183 6.50883 31.2647 6.66723 31.6035C6.82564 31.9424 6.67942 32.3456 6.34049 32.504L4.56562 33.3337C4.47287 33.3772 4.37524 33.3977 4.27924 33.3977Z" fill="#FEDBA6"/>
<path d="M2.52013 45.8902C2.34773 45.8902 2.17542 45.8249 2.04329 45.6939C1.7776 45.4306 1.7757 45.0018 2.03905 44.7361L9.89524 36.8107C10.1587 36.545 10.5876 36.5431 10.8531 36.8066C11.1188 37.0699 11.1207 37.4987 10.8573 37.7644L3.00112 45.6898C2.86873 45.8233 2.69443 45.8902 2.52013 45.8902Z" fill="#FEC165"/>
<path d="M41.4296 4.83086C40.9769 4.51568 40.5937 4.13737 40.2838 3.69268C40.0675 3.3821 39.613 3.36711 39.384 3.66848C39.0712 4.08002 38.6891 4.45075 38.244 4.78462C37.9321 5.01853 37.9397 5.48453 38.2627 5.70272C38.7062 6.00228 39.0875 6.37255 39.3996 6.82167C39.6174 7.13522 40.0798 7.13522 40.3047 6.82672C40.6077 6.41111 40.9892 6.05565 41.4314 5.74652C41.7505 5.52336 41.7492 5.05339 41.4296 4.83086Z" fill="#FEE97D"/>
<path d="M43.6431 20.6965C43.2691 20.6965 42.9658 20.3933 42.9658 20.0192V16.3672C42.9658 15.9931 43.2691 15.6899 43.6431 15.6899C44.0172 15.6899 44.3205 15.9931 44.3205 16.3672V20.0192C44.3205 20.3933 44.0172 20.6965 43.6431 20.6965Z" fill="#FEF48B"/>
<path d="M45.4692 18.8706H41.8172C41.4432 18.8706 41.1399 18.5674 41.1399 18.1933C41.1399 17.8191 41.4432 17.516 41.8172 17.516H45.4692C45.8433 17.516 46.1465 17.8191 46.1465 18.1933C46.1465 18.5674 45.8433 18.8706 45.4692 18.8706Z" fill="#FEF48B"/>
<path d="M40.9198 35.4014L41.2498 36.4167C41.3263 36.6524 41.546 36.812 41.7939 36.812H42.8613C43.4156 36.812 43.646 37.5212 43.1977 37.8469L42.334 38.4744C42.1335 38.6201 42.0496 38.8784 42.1262 39.1141L42.4561 40.1293C42.6273 40.6564 42.0241 41.0947 41.5758 40.769L40.7121 40.1415C40.5116 39.9959 40.2401 39.9959 40.0396 40.1415L39.176 40.769C38.7276 41.0947 38.1243 40.6565 38.2956 40.1293L38.6255 39.1141C38.7021 38.8784 38.6182 38.6202 38.4177 38.4744L37.5541 37.8469C37.1057 37.5212 37.3362 36.812 37.8904 36.812H38.9579C39.2057 36.812 39.4254 36.6524 39.502 36.4167L39.8319 35.4014C40.0029 34.8743 40.7486 34.8743 40.9198 35.4014Z" fill="#FEE97D"/>
<path d="M33.3668 30.6586C34.3079 30.6586 35.1351 31.1454 35.6129 31.8796C34.5075 33.2731 33.1402 34.4498 31.5859 35.3367C31.035 34.8463 30.6882 34.1319 30.6882 33.3372C30.6882 31.8579 31.8876 30.6586 33.3668 30.6586Z" fill="#EFE2DD"/>
<path d="M25.8493 28.4342C26.9069 28.4342 27.7639 29.2913 27.7639 30.3488C27.7639 31.4063 26.9069 32.2625 25.8493 32.2625C25.4014 32.2625 24.9896 32.1072 24.6636 31.8498V28.8479C24.9896 28.5896 25.4014 28.4342 25.8493 28.4342Z" fill="#EFE2DD"/>
<path d="M37.2789 17.1617C36.7732 17.4426 36.1907 17.6033 35.5712 17.6033C33.6223 17.6033 32.0427 16.0229 32.0427 14.0749C32.0427 13.2296 32.3398 12.4547 32.8347 11.8478C34.7268 13.2115 36.2629 15.0385 37.2789 17.1617Z" fill="#EFE2DD"/>
<path d="M32.0427 21.6104C33.2348 21.6104 34.202 22.5776 34.202 23.7697C34.202 24.9618 33.2348 25.9281 32.0427 25.9281C30.8506 25.9281 29.8843 24.9618 29.8843 23.7697C29.8843 22.5776 30.8506 21.6104 32.0427 21.6104Z" fill="#EFE2DD"/>
<path d="M26.1094 13.3876C27.605 13.3876 28.8169 14.5996 28.8169 16.0942C28.8169 17.5898 27.605 18.8017 26.1094 18.8017C25.5775 18.8017 25.0817 18.6473 24.6636 18.3827V13.8067C25.0817 13.5411 25.5775 13.3876 26.1094 13.3876Z" fill="#EFE2DD"/>
</g>
<defs>
<clipPath id="clip0">
<rect width="46.1893" height="46.1893" fill="white" transform="translate(0.810791)"/>
</clipPath>
</defs>
</svg>
