<svg width="47" height="47" viewBox="0 0 47 47" fill="none" xmlns="http://www.w3.org/2000/svg">
<path d="M24.2706 9.23049C24.2573 9.23049 24.2441 9.23007 24.2308 9.23007C15.5794 9.23007 8.56616 15.4354 8.56616 23.0901C8.56616 30.7447 15.5794 36.95 24.2308 36.95C24.2441 36.95 24.2573 36.9496 24.2706 36.9496V9.23049Z" fill="#FDB441"/>
<path d="M24.6414 13.1901C18.1286 13.1901 12.8491 17.9178 12.8491 23.75C12.8491 29.4107 17.8226 34.0305 24.07 34.2974L24.0841 34.2679L24.2337 34.2887L24.2986 34.3053C24.4125 34.3082 24.5267 34.31 24.6414 34.31L28.5536 29.8107V16.8642L24.6414 13.1901Z" fill="#FEDF30"/>
<path d="M22.9488 14.4773C22.5441 14.4773 22.2161 14.1741 22.2161 13.7998V0.677484C22.2161 0.303242 22.5441 0 22.9488 0C23.3535 0 23.6816 0.303242 23.6816 0.677484V13.7999C23.6816 14.1741 23.3535 14.4773 22.9488 14.4773Z" fill="#EFE2DD"/>
<path d="M22.9488 46.19C22.5441 46.19 22.2161 45.8868 22.2161 45.5125V36.9871C22.2161 36.6128 22.5441 36.3096 22.9488 36.3096C23.3535 36.3096 23.6816 36.6128 23.6816 36.9871V45.5125C23.6816 45.8867 23.3535 46.19 22.9488 46.19Z" fill="#EFE2DD"/>
<path d="M16.9637 23.8388C16.9637 19.2084 19.9304 15.1928 24.2705 13.2032L24.2582 13.1901C17.9574 13.1901 12.8491 17.9191 12.8491 23.7527C12.8491 29.4835 17.7792 34.1476 23.9264 34.31C19.7749 32.2691 16.9637 28.3455 16.9637 23.8388Z" fill="#FED402"/>
<path d="M23.4151 5.27008C33.6657 5.27008 41.9736 13.2485 41.9736 23.0903C41.9736 32.9321 33.6643 40.91 23.4138 40.91L23.4151 5.27008Z" fill="#F3EAE6"/>
<path d="M2.36262 23.7037H0.606317C0.271468 23.7037 0 23.4527 0 23.1431C0 22.8334 0.271468 22.5825 0.606317 22.5825H2.3627C2.69755 22.5825 2.96901 22.8334 2.96901 23.1431C2.96893 23.4527 2.69746 23.7037 2.36262 23.7037Z" fill="#FEDBA6"/>
<path d="M13.3023 8.64741C13.0706 8.64741 12.8493 8.52394 12.7485 8.31562L11.8079 6.37188C11.6712 6.08934 11.808 5.7577 12.1137 5.63131C12.4195 5.50491 12.7781 5.63146 12.9148 5.91407L13.8554 7.85781C13.9921 8.14034 13.8552 8.47199 13.5495 8.59838C13.4692 8.63164 13.385 8.64741 13.3023 8.64741Z" fill="#FEDBA6"/>
<path d="M3.92851 16.5028C3.8425 16.5028 3.75519 16.4858 3.67208 16.4499L2.08329 15.7632C1.77997 15.6321 1.649 15.2984 1.79088 15.0179C1.93268 14.7374 2.29364 14.6164 2.59688 14.7475L4.18567 15.4343C4.48899 15.5654 4.61996 15.8991 4.47816 16.1796C4.37517 16.3832 4.15665 16.5028 3.92851 16.5028Z" fill="#FEDBA6"/>
<path d="M7.64516 11.6306C7.48906 11.6306 7.33311 11.5753 7.21452 11.4647L0.182044 4.90537C-0.053692 4.6854 -0.0519943 4.33051 0.185844 4.11255C0.423601 3.89452 0.807521 3.89609 1.04326 4.11599L8.07581 10.6754C8.31155 10.8953 8.30985 11.2502 8.07201 11.4681C7.95382 11.5766 7.79949 11.6306 7.64516 11.6306Z" fill="#FEC165"/>
<path d="M12.361 40.7039C12.2783 40.7039 12.1943 40.6881 12.1137 40.6548C11.8081 40.5285 11.6711 40.1968 11.8079 39.9143L12.7485 37.9705C12.8852 37.6879 13.2438 37.5612 13.5496 37.6878C13.8552 37.8142 13.9922 38.1458 13.8554 38.4283L12.9148 40.3721C12.8142 40.5803 12.5928 40.7039 12.361 40.7039Z" fill="#FEDBA6"/>
<path d="M2.34049 31.5915C2.11236 31.5915 1.89384 31.4718 1.79085 31.2682C1.64905 30.9877 1.77993 30.654 2.08325 30.5229L3.67205 29.8362C3.97553 29.705 4.33633 29.8262 4.47813 30.1065C4.61992 30.387 4.48904 30.7207 4.18564 30.8518L2.59685 31.5386C2.51382 31.5745 2.42643 31.5915 2.34049 31.5915Z" fill="#FEDBA6"/>
<path d="M0.766011 41.9309C0.611683 41.9309 0.457436 41.8768 0.339164 41.7684C0.101326 41.5504 0.0996283 41.1955 0.335364 40.9756L7.36792 34.4163C7.60373 34.1964 7.98765 34.1948 8.22533 34.4128C8.46317 34.6308 8.46487 34.9857 8.22913 35.2056L1.19658 41.765C1.07806 41.8755 0.922037 41.9309 0.766011 41.9309Z" fill="#FEC165"/>
<path d="M41.0872 4.82206C40.5974 4.5068 40.1829 4.1284 39.8477 3.68361C39.6136 3.37296 39.1219 3.35797 38.8742 3.6594C38.5358 4.07104 38.1224 4.44185 37.6409 4.77581C37.3035 5.00977 37.3117 5.47588 37.6611 5.69412C38.1409 5.99374 38.5534 6.3641 38.8911 6.81332C39.1267 7.12695 39.627 7.12695 39.8702 6.81838C40.198 6.40267 40.6107 6.04713 41.0891 5.73793C41.4343 5.51472 41.4329 5.04463 41.0872 4.82206Z" fill="#FEE97D"/>
<path d="M43.4818 20.6914C43.0771 20.6914 42.749 20.3881 42.749 20.0139V16.3611C42.749 15.9868 43.0771 15.6836 43.4818 15.6836C43.8864 15.6836 44.2145 15.9868 44.2145 16.3611V20.0139C44.2145 20.3881 43.8864 20.6914 43.4818 20.6914Z" fill="#FEF48B"/>
<path d="M45.4575 18.865H41.5067C41.102 18.865 40.7739 18.5618 40.7739 18.1876C40.7739 17.8133 41.102 17.5101 41.5067 17.5101H45.4575C45.8621 17.5101 46.1902 17.8133 46.1902 18.1876C46.1902 18.5618 45.8621 18.865 45.4575 18.865Z" fill="#FEF48B"/>
<path d="M40.5357 35.3997L40.8926 36.4152C40.9754 36.6509 41.213 36.8105 41.4812 36.8105H42.636C43.2356 36.8105 43.4849 37.5199 42.9999 37.8457L42.0656 38.4734C41.8487 38.6191 41.7579 38.8774 41.8408 39.1132L42.1977 40.1287C42.3829 40.6559 41.7303 41.0943 41.2453 40.7685L40.311 40.1409C40.0941 39.9952 39.8003 39.9952 39.5834 40.1409L38.6491 40.7685C38.164 41.0943 37.5114 40.6559 37.6967 40.1287L38.0536 39.1132C38.1365 38.8774 38.0457 38.6192 37.8288 38.4734L36.8945 37.8457C36.4094 37.5199 36.6588 36.8105 37.2583 36.8105H38.4132C38.6812 36.8105 38.9189 36.6509 39.0018 36.4152L39.3587 35.3997C39.5437 34.8724 40.3504 34.8724 40.5357 35.3997Z" fill="#FEE97D"/>
<path d="M34.9687 32.6109C36.2181 32.6109 37.3164 33.2314 37.9507 34.1674C36.4831 35.9437 34.6677 37.4437 32.6042 38.5742C31.8728 37.9491 31.4124 37.0385 31.4124 36.0254C31.4124 34.1397 33.0047 32.6109 34.9687 32.6109Z" fill="#EFE2DD"/>
<path d="M24.9881 29.7755C26.3922 29.7755 27.5301 30.868 27.5301 32.216C27.5301 33.5641 26.3922 34.6555 24.9881 34.6555C24.3934 34.6555 23.8467 34.4575 23.4138 34.1294V30.3027C23.8467 29.9735 24.3934 29.7755 24.9881 29.7755Z" fill="#EFE2DD"/>
<path d="M40.1629 15.4059C39.4915 15.7639 38.7181 15.9688 37.8956 15.9688C35.308 15.9688 33.2109 13.9542 33.2109 11.471C33.2109 10.3935 33.6054 9.40573 34.2625 8.63211C36.7745 10.3705 38.814 12.6994 40.1629 15.4059Z" fill="#EFE2DD"/>
<path d="M33.2111 21.0768C34.7939 21.0768 36.078 22.3097 36.078 23.8294C36.078 25.349 34.7939 26.5808 33.2111 26.5808C31.6284 26.5808 30.3455 25.349 30.3455 23.8294C30.3455 22.3097 31.6284 21.0768 33.2111 21.0768Z" fill="#EFE2DD"/>
<path d="M25.3335 10.5949C27.3191 10.5949 28.9281 12.1399 28.9281 14.0452C28.9281 15.9516 27.3191 17.4965 25.3335 17.4965C24.6272 17.4965 23.969 17.2997 23.4138 16.9623V11.1291C23.969 10.7906 24.6272 10.5949 25.3335 10.5949Z" fill="#EFE2DD"/>
</svg>
