<svg width="14" height="16" viewBox="0 0 14 16" fill="none" xmlns="http://www.w3.org/2000/svg">
<path d="M13.3967 1.66762H9.83127L9.55198 1.12745C9.49282 1.01196 9.40169 0.914822 9.28883 0.84695C9.17598 0.779078 9.04589 0.743168 8.91319 0.743261H5.51716C5.38476 0.742766 5.25489 0.778542 5.14244 0.846489C5.02999 0.914437 4.93949 1.01181 4.88133 1.12745L4.60204 1.66762H1.03666C0.910584 1.66762 0.789668 1.71631 0.700516 1.80299C0.611364 1.88966 0.561279 2.00722 0.561279 2.1298L0.561279 3.05415C0.561279 3.17673 0.611364 3.29429 0.700516 3.38096C0.789668 3.46764 0.910584 3.51633 1.03666 3.51633H13.3967C13.5227 3.51633 13.6436 3.46764 13.7328 3.38096C13.822 3.29429 13.872 3.17673 13.872 3.05415V2.1298C13.872 2.00722 13.822 1.88966 13.7328 1.80299C13.6436 1.71631 13.5227 1.66762 13.3967 1.66762ZM2.14193 14.2331C2.16461 14.5851 2.32441 14.9155 2.58881 15.157C2.85321 15.3985 3.20234 15.5329 3.56511 15.533H10.8682C11.231 15.5329 11.5801 15.3985 11.8445 15.157C12.1089 14.9155 12.2687 14.5851 12.2914 14.2331L12.9213 4.44069H1.51205L2.14193 14.2331Z" fill="#EB3C3C"/>
</svg>
